<svg xmlns="http://www.w3.org/2000/svg" width="53.996" height="37.283" viewBox="0 0 53.996 37.283">
  <path id="delivery-truck_1_" data-name="delivery-truck (1)" d="M38,20.427H53.424V19.8l-7.288-7.086H38ZM38,23v9a6.43,6.43,0,0,1,11.036,1.286h4.392V23ZM35.426,33.283V7.571H4.571V33.283h1.82a6.431,6.431,0,0,1,11.786,0ZM38,10.142H47.18L56,18.713v14.57a2.571,2.571,0,0,1-2.571,2.571H49.568a6.428,6.428,0,0,1-12.856,0h-18a6.428,6.428,0,0,1-12.856,0H4.571A2.571,2.571,0,0,1,2,33.283V7.571A2.571,2.571,0,0,1,4.571,5H35.426A2.571,2.571,0,0,1,38,7.571ZM12.285,39.711a3.857,3.857,0,1,0-3.857-3.857A3.857,3.857,0,0,0,12.285,39.711Zm30.855,0a3.857,3.857,0,1,0-3.857-3.857A3.857,3.857,0,0,0,43.14,39.711Z" transform="translate(-2 -5)" fill="#fff"/>
</svg>
