<svg id="global-business" xmlns="http://www.w3.org/2000/svg" width="51.303" height="51.201" viewBox="0 0 51.303 51.201">
  <path id="Path_149" data-name="Path 149" d="M6.531,41.927a.852.852,0,0,1-.692-.353A25.616,25.616,0,0,1,44.743,8.5.854.854,0,0,1,43.535,9.7,23.909,23.909,0,0,0,7.222,40.573a.854.854,0,0,1-.692,1.354Zm20.1,10.281A25.532,25.532,0,0,1,8.518,44.719a.854.854,0,1,1,1.207-1.207A23.909,23.909,0,0,0,46.062,12.676a.854.854,0,1,1,1.386-1A25.6,25.6,0,0,1,26.629,52.208Z" transform="translate(-0.976 -1.007)" fill="#631233"/>
  <path id="Path_150" data-name="Path 150" d="M6.274,47.912a.854.854,0,0,1-.854-.854v-4.2A.854.854,0,0,1,6.274,42h4.2a.854.854,0,1,1,0,1.707H7.128v3.347A.854.854,0,0,1,6.274,47.912ZM41.291,8.694h-4.2a.854.854,0,0,1,0-1.707h3.348V3.64a.854.854,0,1,1,1.707,0v4.2A.854.854,0,0,1,41.291,8.694ZM23.782,44.131A18.782,18.782,0,1,1,42.565,25.349,18.8,18.8,0,0,1,23.782,44.131Zm0-35.857A17.075,17.075,0,1,0,40.857,25.349,17.094,17.094,0,0,0,23.782,8.274Z" transform="translate(1.871 0.252)" fill="#631233"/>
  <path id="Path_151" data-name="Path 151" d="M23.782,42.565A18.782,18.782,0,1,1,42.565,23.782,18.8,18.8,0,0,1,23.782,42.565Zm0-35.857A17.075,17.075,0,1,0,40.857,23.782,17.094,17.094,0,0,0,23.782,6.707Z" transform="translate(1.871 1.818)" fill="#641233"/>
  <path id="Path_152" data-name="Path 152" d="M34.82,34.548a.84.84,0,0,1-.241-.036,45.642,45.642,0,0,0-25.633,0,.853.853,0,0,1-.48-1.637,47.341,47.341,0,0,1,26.593,0,.854.854,0,0,1-.239,1.673ZM21.764,11.91a47.243,47.243,0,0,1-9.277-.922.854.854,0,1,1,.336-1.675,45.591,45.591,0,0,0,21.755-.958.853.853,0,1,1,.48,1.637A47.047,47.047,0,0,1,21.764,11.91Z" transform="translate(3.889 4.166)" fill="#641233"/>
  <path id="Path_153" data-name="Path 153" d="M16.858,42.5a.854.854,0,0,1-.482-1.559,20.711,20.711,0,0,0,0-34.362.854.854,0,1,1,.963-1.41,22.419,22.419,0,0,1,0,37.182A.864.864,0,0,1,16.858,42.5Z" transform="translate(9.656 1.836)" fill="#641233"/>
  <path id="Path_154" data-name="Path 154" d="M19.793,40.911a.85.85,0,0,1-.482-.149,22.391,22.391,0,0,1-4.463-33.19.854.854,0,1,1,1.294,1.113,20.682,20.682,0,0,0,4.132,30.665.855.855,0,0,1-.482,1.561Z" transform="translate(5 3.429)" fill="#641233"/>
  <path id="Path_155" data-name="Path 155" d="M16.354,41.229a.854.854,0,0,1-.854-.854V6.407a.854.854,0,0,1,1.707,0V40.377A.853.853,0,0,1,16.354,41.229Z" transform="translate(9.3 2.209)" fill="#641233"/>
  <path id="Path_156" data-name="Path 156" d="M39.314,17.207H7.907a.854.854,0,1,1,0-1.707H39.316a.854.854,0,1,1,0,1.707Z" transform="translate(3.324 9.247)" fill="#641233"/>
</svg>
