<svg xmlns="http://www.w3.org/2000/svg" width="49.016" height="49.004" viewBox="0 0 49.016 49.004">
  <path id="helping-employee" d="M48.25,29.865H40.591a.766.766,0,0,0-.766.766v6.606h-1.72a2.008,2.008,0,0,0,.047-.78l-2.19-14.144v-8.34a3.163,3.163,0,0,0-2.4-3.063V9.2a4.974,4.974,0,0,0,1.909-2.114l.014-.025a4.949,4.949,0,0,0-8.939-4.248c-.009.012-.014.028-.023.041A4.892,4.892,0,0,0,28.432,9.2v2.048a3.134,3.134,0,0,0-.371.247l-3.633,2.91H22.59a2.566,2.566,0,1,0,0,5.131h3a.766.766,0,0,0,.46-.153l1.175-.881v3.722l-2.066,5.292a3.24,3.24,0,0,0-.112,1.927l1.97,7.769a2.01,2.01,0,0,0,.556.919V40l-9.943-.181a.666.666,0,0,0-.55.221.766.766,0,0,0-.23.545v2.3H11.241c.009-.029.029-.054.037-.084l1.968-7.764a3.243,3.243,0,0,0-.115-1.93l-2.069-5.288V24.1l1.175.881a.766.766,0,0,0,.46.153h3A2.566,2.566,0,1,0,15.7,20H13.867l-3.635-2.91a3.147,3.147,0,0,0-.369-.244V14.794a4.891,4.891,0,0,0,1.91-6.341.413.413,0,0,0-.025-.044,4.948,4.948,0,0,0-8.938,4.249l.011.02a4.974,4.974,0,0,0,1.91,2.117V16.5a3.163,3.163,0,0,0-2.4,3.063v8.339L.139,42.056a1.991,1.991,0,0,0,.135,1.02A.754.754,0,0,0,0,43.65v4.6a.766.766,0,0,0,.766.766H48.25a.766.766,0,0,0,.766-.766V30.631A.766.766,0,0,0,48.25,29.865ZM22.976,18.008H22.6a1.034,1.034,0,0,1-.731-1.766,1.022,1.022,0,0,1,.729-.306h.38Zm-7.659,3.523H15.7a1.034,1.034,0,1,1,0,2.068h-.378Zm21.32,15.15a.46.46,0,0,1-.107.365.51.51,0,0,1-.81-.273L31.441,23.14h3.1Zm-5.667-.222-.977-7.835,1.158-1.273,3.082,9.812c0,.026.023.046.029.072H30.888a1.951,1.951,0,0,0,.107-.527,1.2,1.2,0,0,0-.018-.248Zm.02-34.924a3.437,3.437,0,0,1,3.44,3.439,3.387,3.387,0,0,1-.176,1.035h-.691V4.374a.766.766,0,0,0-.613-.751l-4.523-.9A3.411,3.411,0,0,1,31,1.541ZM27.564,4.974a3.393,3.393,0,0,1,.115-.835L32.032,5V6.775a.766.766,0,0,0,.766.766h.46a3.416,3.416,0,0,1-5.693-2.567Zm4.468,4.854v.979H29.965V9.828a4.837,4.837,0,0,0,2.068,0Zm-6.689,8.179h-.835V15.94H24.7a.766.766,0,0,0,.479-.167L29.019,12.7a1.644,1.644,0,0,1,1.022-.357H32.8a1.636,1.636,0,0,1,1.633,1.633v7.633H28.763V17.573a.737.737,0,0,0-.038-.187l2.131-1.6a.766.766,0,0,0-.919-1.225Zm1.19,11.067a1.685,1.685,0,0,1,.054-1l1.935-4.937h1.314l.792,2.523-1.991,2.193a.766.766,0,0,0-.193.613l1.026,8.245a.5.5,0,0,1-.495.493.5.5,0,0,1-.469-.369ZM11.706,33.66a1.685,1.685,0,0,1,.057,1L9.8,42.425a.495.495,0,0,1-.959-.181l1.02-8.183a.766.766,0,0,0-.193-.613L7.68,31.256l.792-2.524H9.786ZM7.417,42.885H4.01c0-.021.021-.04.026-.063l3.1-9.878,1.158,1.271-.968,7.778A1.477,1.477,0,0,0,7.3,42.3a1.965,1.965,0,0,0,.118.585Zm3.313-32.32a3.416,3.416,0,0,1-5.69,2.566H5.5a.766.766,0,0,0,.766-.766V10.594l4.353-.862A3.393,3.393,0,0,1,10.73,10.565Zm-2.4,4.854v.988H6.265v-.98a4.837,4.837,0,0,0,2.068,0ZM4.042,11.6a3.384,3.384,0,0,1-.179-1.035A3.419,3.419,0,0,1,9.871,8.318l-4.523.9a.766.766,0,0,0-.613.751V11.6Zm-.176,7.965A1.636,1.636,0,0,1,5.5,17.932H8.256a1.64,1.64,0,0,1,1.02.357l3.843,3.074a.766.766,0,0,0,.479.167h.187V23.6h-.833l-4.6-3.446a.766.766,0,0,0-.919,1.225l2.131,1.6a.737.737,0,0,0-.038.188v4.033H3.863Zm-.109,9.163h3.1l-4.3,13.7c-.084.391-.683.332-.793.207a.459.459,0,0,1-.109-.357ZM47.484,47.48H1.532V44.416H17.615a.766.766,0,0,0,.766-.766V41.367l9.943.178a.858.858,0,0,0,.55-.221.766.766,0,0,0,.23-.545v-2.01H40.591A.766.766,0,0,0,41.357,38V31.4h6.127Z" transform="translate(0 -0.008)" fill="#fff"/>
</svg>
