<svg xmlns="http://www.w3.org/2000/svg" width="40.333" height="47.651" viewBox="0 0 40.333 47.651">
  <path id="premium" d="M21,2.013a1.1,1.1,0,0,0-.411.007v.007a1.091,1.091,0,0,0-.61.306,4.168,4.168,0,0,0-.394.372c-.259.272-.531.6-.8.918s-.534.641-.743.872q-.1.113-.212.219c-.078,0-.17-.018-.3-.033-.306-.04-.71-.112-1.122-.184s-.827-.147-1.2-.187a4.232,4.232,0,0,0-.539-.03,1.071,1.071,0,0,0-.665.164,1.088,1.088,0,0,0-.468.5,4.332,4.332,0,0,0-.24.483c-.15.346-.3.745-.444,1.141s-.284.788-.4,1.077c-.05.122-.092.212-.127.284q-.146.042-.294.075c-.3.067-.7.139-1.116.212s-.83.15-1.194.24a4.1,4.1,0,0,0-.514.157,1.1,1.1,0,0,0-.568.379,1.079,1.079,0,0,0-.267.626,4.448,4.448,0,0,0-.067.534c-.023.376-.023.8-.025,1.226s0,.838-.013,1.152c-.005.134-.017.23-.025.309-.063.047-.14.105-.25.177-.262.167-.621.374-.984.586s-.725.429-1.035.64a4.172,4.172,0,0,0-.431.326A1.217,1.217,0,0,0,5.1,15.79a4.168,4.168,0,0,0,.124.524c.1.362.247.765.389,1.162s.281.788.374,1.085c.04.127.067.222.085.3-.043.067-.1.15-.184.257-.189.247-.451.563-.72.887s-.536.655-.756.959a4.158,4.158,0,0,0-.294.454,1.2,1.2,0,0,0,0,1.3,4.275,4.275,0,0,0,.294.454c.22.3.489.635.756.959s.531.64.721.887c.08.107.139.19.182.257q-.036.152-.083.3c-.1.3-.234.69-.376,1.085s-.284.8-.389,1.159a4.275,4.275,0,0,0-.124.528,1.118,1.118,0,0,0,.042.68,1.1,1.1,0,0,0,.4.548,4.341,4.341,0,0,0,.431.326c.312.21.676.428,1.037.64s.721.417.982.584a2.492,2.492,0,0,1,.25.175c.01.08.022.179.027.312.013.314.013.73.013,1.152s0,.847.027,1.222a3.969,3.969,0,0,0,.065.539,1.19,1.19,0,0,0,.835,1,3.922,3.922,0,0,0,.514.16c.364.09.785.167,1.194.24s.813.145,1.116.212c.127.028.219.053.294.075.035.072.077.162.127.284.077.185.169.448.259.691L8.3,44.71a.9.9,0,0,0,1.007,1.321l4.035-1.082,1.084,4.038a.9.9,0,0,0,1.64.215L20.228,42a1.047,1.047,0,0,0,.359.124,1.085,1.085,0,0,0,.68-.077,4.192,4.192,0,0,0,.494-.212c.337-.167.7-.377,1.069-.588s.716-.419.99-.564c.115-.06.2-.1.271-.134.072.033.157.073.271.134.274.145.63.354.992.564s.73.421,1.067.588a4.078,4.078,0,0,0,.494.212,1.085,1.085,0,0,0,.68.077A1.064,1.064,0,0,0,27.95,42L32.108,49.2a.9.9,0,0,0,1.64-.217l1.084-4.033,4.031,1.082a.9.9,0,0,0,1-1.319l-4.4-7.5c.09-.25.184-.516.261-.7.05-.122.092-.212.127-.284.075-.022.167-.047.294-.075.3-.067.7-.137,1.116-.212s.83-.15,1.194-.24a4.075,4.075,0,0,0,.514-.16,1.1,1.1,0,0,0,.568-.377,1.083,1.083,0,0,0,.267-.626,4.577,4.577,0,0,0,.067-.539c.023-.376.023-.8.025-1.222s0-.838.013-1.152c.005-.134.017-.234.025-.312.063-.047.14-.105.25-.177.262-.167.618-.371.98-.584s.726-.428,1.035-.638a3.982,3.982,0,0,0,.431-.326,1.1,1.1,0,0,0,.4-.548,1.108,1.108,0,0,0,.043-.68,4.275,4.275,0,0,0-.124-.528q-.177-.585-.389-1.157-.2-.54-.374-1.085-.047-.149-.083-.3c.042-.067.1-.154.18-.259.19-.247.454-.563.721-.887s.539-.655.76-.959a4.111,4.111,0,0,0,.294-.454,1.2,1.2,0,0,0,0-1.3,4.155,4.155,0,0,0-.294-.454c-.22-.3-.493-.635-.76-.959s-.531-.643-.721-.89q-.1-.124-.182-.254c.018-.078.045-.174.083-.3.1-.3.234-.69.376-1.085s.284-.8.389-1.162a4.167,4.167,0,0,0,.124-.524,1.211,1.211,0,0,0-.443-1.227,4.1,4.1,0,0,0-.431-.326q-.508-.336-1.037-.64c-.362-.212-.718-.419-.979-.586q-.128-.084-.25-.177c-.01-.08-.022-.177-.027-.309-.013-.314-.013-.73-.013-1.152s0-.85-.027-1.226a4.2,4.2,0,0,0-.065-.534,1.079,1.079,0,0,0-.267-.626,1.09,1.09,0,0,0-.568-.379,4.184,4.184,0,0,0-.514-.157q-.593-.139-1.194-.24c-.411-.073-.813-.145-1.116-.212q-.148-.033-.294-.075-.068-.14-.127-.284c-.117-.289-.257-.681-.4-1.077s-.284-.765-.444-1.141a4.205,4.205,0,0,0-.242-.484,1.1,1.1,0,0,0-.466-.494,1.083,1.083,0,0,0-.665-.164c-.179,0-.352.017-.539.03-.372.04-.788.114-1.2.185s-.817.145-1.122.187c-.127.017-.219.025-.3.032q-.11-.1-.212-.217-.379-.429-.743-.872c-.269-.322-.544-.651-.8-.923a4.049,4.049,0,0,0-.392-.367,1.074,1.074,0,0,0-.61-.311,1.087,1.087,0,0,0-.68.075,4.241,4.241,0,0,0-.494.215c-.337.167-.7.377-1.069.586s-.716.419-.99.564c-.114.06-.2.1-.271.127-.072-.032-.155-.067-.271-.127-.274-.145-.63-.354-.992-.564s-.705-.4-1.067-.586a4.542,4.542,0,0,0-.494-.217A1.872,1.872,0,0,0,21,2.012Zm-.1,1.748c.045.02.072.025.127.052.262.13.611.327.969.534s.721.421,1.047.595a5.188,5.188,0,0,0,.469.227,1.233,1.233,0,0,0,.584.139,1.217,1.217,0,0,0,.581-.139q.239-.1.468-.227c.327-.174.695-.387,1.052-.595s.706-.4.969-.534a1.135,1.135,0,0,1,.127-.052c.037.033.058.05.1.094.2.214.468.524.731.842s.534.645.783.92c.124.137.239.259.362.372a1.206,1.206,0,0,0,.5.329,1.222,1.222,0,0,0,.595.072,3.588,3.588,0,0,0,.518-.05c.367-.05.783-.124,1.187-.2s.8-.137,1.094-.169a.355.355,0,0,0,.137-.017l.062.13c.117.271.262.653.4,1.044s.284.792.424,1.136c.07.172.139.327.215.476a1.3,1.3,0,0,0,.887.75c.159.052.322.094.5.134.362.08.777.152,1.182.225s.8.145,1.085.217c.063.017.089.027.137.04.007.052.012.08.017.147.02.3.022.7.023,1.119s0,.842.017,1.214c.007.185.017.356.038.521a1.335,1.335,0,0,0,.578,1.009,5.028,5.028,0,0,0,.428.3c.311.2.678.409,1.034.618s.7.417.945.581c.055.037.075.057.117.089-.012.052-.017.082-.035.147-.082.284-.217.668-.356,1.06s-.284.787-.394,1.141q-.082.25-.14.506a1.255,1.255,0,0,0-.033.593,1.234,1.234,0,0,0,.232.549,4.98,4.98,0,0,0,.3.429c.224.3.494.618.76.937s.521.635.695.873c.04.055.055.083.083.129-.028.045-.043.072-.083.127-.174.239-.431.551-.695.87s-.534.645-.76.94a4.827,4.827,0,0,0-.3.424,1.331,1.331,0,0,0-.2,1.147,4.661,4.661,0,0,0,.14.5c.112.356.254.755.394,1.146s.274.777.356,1.06c.018.067.023.1.035.147-.042.033-.062.05-.117.089q-.464.3-.945.581c-.356.209-.723.419-1.035.618-.155.1-.3.2-.426.3a1.336,1.336,0,0,0-.578,1.005q-.031.261-.038.524c-.017.372-.017.795-.017,1.211s0,.823-.023,1.119c-.005.067-.01.1-.017.15-.05.017-.073.022-.137.038-.284.07-.68.145-1.085.219s-.82.145-1.181.225q-.253.053-.5.13a1.221,1.221,0,0,0-.534.274,1.234,1.234,0,0,0-.354.479q-.119.233-.215.476c-.14.344-.282.745-.424,1.136s-.286.768-.4,1.04c-.027.06-.042.087-.067.134a.41.41,0,0,1-.134-.017Q32.6,38.1,32.061,38c-.4-.072-.822-.147-1.186-.2q-.258-.039-.519-.053a1.321,1.321,0,0,0-.595.075,1.206,1.206,0,0,0-.5.327q-.19.179-.362.374c-.249.276-.518.6-.783.918s-.528.626-.73.84c-.043.045-.067.062-.1.1-.047-.02-.073-.028-.129-.055q-.492-.255-.969-.538c-.357-.207-.725-.421-1.052-.593a5.136,5.136,0,0,0-.468-.225,1.22,1.22,0,0,0-.581-.137,1.235,1.235,0,0,0-.584.137q-.239.1-.468.227c-.327.174-.691.387-1.049.595s-.706.4-.969.534c-.055.027-.082.035-.127.055a1.054,1.054,0,0,1-.1-.1q-.378-.408-.731-.838c-.267-.317-.534-.645-.783-.918q-.172-.2-.362-.376a1.321,1.321,0,0,0-1.092-.4,3.864,3.864,0,0,0-.518.053c-.367.05-.783.125-1.187.2s-.8.139-1.094.169a.342.342,0,0,0-.134.017c-.023-.047-.038-.072-.065-.134-.117-.271-.262-.651-.4-1.04s-.284-.792-.424-1.136q-.1-.243-.215-.476a1.212,1.212,0,0,0-.356-.479,1.232,1.232,0,0,0-.531-.274q-.247-.077-.5-.13c-.362-.08-.777-.152-1.182-.225s-.8-.149-1.085-.217q-.069-.019-.137-.04c-.007-.053-.012-.083-.017-.15-.02-.3-.022-.7-.023-1.119s0-.838-.017-1.211q-.007-.263-.038-.524a1.207,1.207,0,0,0-.174-.568,1.226,1.226,0,0,0-.4-.438q-.208-.158-.431-.3c-.311-.2-.676-.411-1.034-.62s-.7-.417-.945-.581c-.055-.037-.075-.057-.117-.089.012-.05.017-.082.035-.147.082-.284.217-.668.356-1.06s.284-.79.394-1.144q.082-.247.14-.5a1.333,1.333,0,0,0-.2-1.149q-.141-.219-.3-.424c-.225-.3-.5-.62-.762-.94s-.518-.631-.691-.87c-.04-.055-.055-.083-.083-.127.028-.045.043-.073.083-.129.174-.239.429-.554.691-.873s.534-.645.762-.94c.112-.147.214-.284.3-.426a1.316,1.316,0,0,0,.2-1.142q-.058-.256-.14-.506c-.112-.354-.254-.751-.394-1.141q-.193-.525-.356-1.06c-.018-.067-.023-.1-.035-.147.042-.032.062-.05.117-.089.242-.165.589-.371.945-.579s.723-.421,1.035-.62c.155-.1.3-.2.429-.3a1.227,1.227,0,0,0,.4-.438,1.264,1.264,0,0,0,.174-.571c.022-.165.032-.336.038-.521.017-.372.017-.8.017-1.214s0-.823.023-1.119c.005-.067.01-.094.017-.147a1.239,1.239,0,0,1,.137-.042c.284-.07.68-.142,1.085-.215s.82-.145,1.181-.225q.254-.055.5-.134a1.207,1.207,0,0,0,.534-.271,1.234,1.234,0,0,0,.354-.479q.119-.233.215-.476c.14-.344.282-.745.424-1.136s.286-.773.4-1.044l.062-.13a.419.419,0,0,1,.137.017c.291.032.688.1,1.094.169s.822.147,1.186.2a4.947,4.947,0,0,0,.519.05,1.315,1.315,0,0,0,.595-.073,1.222,1.222,0,0,0,.5-.326q.19-.179.362-.376c.249-.276.518-.6.783-.918s.528-.63.73-.843c.043-.045.067-.058.1-.094Zm3.2,4.12A14.195,14.195,0,1,0,38.285,22.075,14.207,14.207,0,0,0,24.09,7.881Zm0,1.576a12.609,12.609,0,1,1-8.925,3.695A12.606,12.606,0,0,1,24.09,9.457Zm-.038,4.626a1.087,1.087,0,0,0-.888.439,3.54,3.54,0,0,0-.424.595c-.259.431-.513.95-.76,1.476s-.488,1.059-.688,1.461c-.1.2-.19.374-.257.484a.352.352,0,0,1-.033.045l-.048.017c-.125.03-.312.065-.534.1-.446.072-1.024.144-1.6.222a16.616,16.616,0,0,0-1.643.287,3.55,3.55,0,0,0-.688.227,1.122,1.122,0,0,0-.541,1.69,3.377,3.377,0,0,0,.434.584,16.573,16.573,0,0,0,1.174,1.181c.426.4.858.79,1.181,1.106.16.157.3.294.379.391a.264.264,0,0,1,.025.04.487.487,0,0,1,0,.055q-.021.273-.065.544c-.07.444-.18,1.012-.284,1.586a16.359,16.359,0,0,0-.237,1.647,3.4,3.4,0,0,0,.007.726A1.119,1.119,0,0,0,20,30.021a3.6,3.6,0,0,0,.691-.227,16.6,16.6,0,0,0,1.486-.751c.511-.281,1.017-.571,1.416-.778.2-.1.374-.187.493-.235a.5.5,0,0,1,.055-.017.2.2,0,0,1,.047.013c.119.048.294.13.494.232.4.2.908.484,1.423.76s1.03.546,1.5.736a3.491,3.491,0,0,0,.695.219,1.125,1.125,0,0,0,1.431-1.054,3.485,3.485,0,0,0,0-.723c-.043-.5-.15-1.075-.261-1.648s-.225-1.137-.3-1.581q-.048-.269-.075-.541v-.053a.285.285,0,0,1,.03-.042c.082-.1.212-.242.371-.4.317-.317.748-.716,1.169-1.119S31.5,22,31.821,21.62a3.532,3.532,0,0,0,.424-.593,1.081,1.081,0,0,0,.134-.975,1.094,1.094,0,0,0-.695-.708,3.519,3.519,0,0,0-.695-.222q-.816-.171-1.645-.261c-.578-.072-1.159-.137-1.6-.2q-.271-.037-.539-.1a.282.282,0,0,1-.045-.017c-.013-.017-.022-.023-.037-.045q-.139-.233-.261-.476c-.205-.4-.454-.928-.708-1.453q-.351-.754-.775-1.47a3.542,3.542,0,0,0-.434-.588,1.09,1.09,0,0,0-.89-.431v0Zm.012,2.1c.18.311.377.68.584,1.107.247.509.493,1.042.721,1.486.114.225.222.424.334.6a1.512,1.512,0,0,0,.461.529,1.5,1.5,0,0,0,.65.264c.207.05.434.087.681.124.5.073,1.082.139,1.643.209.473.058.883.125,1.236.2-.24.267-.529.568-.873.9-.407.392-.838.79-1.194,1.146-.177.177-.334.342-.468.506a1.474,1.474,0,0,0-.416,1.3c.017.212.05.438.092.685.083.494.205,1.069.312,1.625.09.468.154.878.2,1.236q-.572-.257-1.124-.554c-.5-.267-1.014-.553-1.461-.78q-.307-.159-.626-.291a1.511,1.511,0,0,0-1.368.01c-.2.083-.4.184-.623.3-.444.232-.955.523-1.451.795-.417.23-.792.417-1.119.568.038-.357.1-.772.184-1.239.1-.556.212-1.132.289-1.628.04-.247.067-.473.083-.685A1.5,1.5,0,0,0,20.38,23.3q-.229-.261-.481-.5c-.359-.351-.793-.743-1.206-1.131q-.458-.427-.885-.887c.354-.073.765-.147,1.236-.212.561-.077,1.142-.145,1.638-.225.247-.04.473-.082.678-.134a1.49,1.49,0,0,0,1.1-.8c.11-.182.217-.384.329-.61.222-.451.464-.982.7-1.495.2-.429.394-.8.569-1.119ZM13.576,39.266a1,1,0,0,0,.429.436,1.1,1.1,0,0,0,.665.164c.179,0,.352-.017.539-.03.372-.04.788-.114,1.2-.185s.817-.144,1.122-.185q.148-.02.3-.033c.057.055.124.122.212.217.209.234.474.551.743.872.045.055.089.1.134.154L15.6,46.428l-.753-2.812a.9.9,0,0,0-1.1-.633l-2.789.746,2.618-4.465Zm21.023.008,2.615,4.459-2.789-.746a.9.9,0,0,0-1.1.635l-.753,2.806-3.32-5.745c.047-.057.094-.105.14-.162.267-.321.534-.64.743-.87q.1-.112.212-.217c.078,0,.17.017.3.032.306.042.71.114,1.122.184s.827.147,1.2.187a4.255,4.255,0,0,0,.539.03,1.071,1.071,0,0,0,.665-.164A1,1,0,0,0,34.6,39.274Z" transform="translate(-3.924 -1.996)" fill="#fff"/>
</svg>
