<svg id="ship" xmlns="http://www.w3.org/2000/svg" width="47.885" height="51.495" viewBox="0 0 47.885 51.495">
  <path id="Path_6115" data-name="Path 6115" d="M-128.849,209.029a.887.887,0,0,0-.887.887v5.154a.887.887,0,0,0,.87.887l3.547.08a.887.887,0,0,0,.638-.254.887.887,0,0,0,.266-.633v-5.234a.887.887,0,0,0-.887-.887h-3.547Zm.887,1.774h1.774v3.44l-1.774-.038v-3.4Z" transform="translate(151.018 -209.029)" fill="#fff"/>
  <path id="Path_6116" data-name="Path 6116" d="M-117.818,217.529a.887.887,0,0,0-.281.055l-23.056,8.435a.887.887,0,0,0-.533,1.119l8.951,26.212a.887.887,0,0,0,.838.6h14.105a.887.887,0,0,0,.887-.887V218.416a.887.887,0,0,0-.268-.636.887.887,0,0,0-.643-.251Zm-.863,2.158v32.488h-12.585l-8.462-24.788,21.047-7.7Z" transform="translate(141.736 -202.454)" fill="#fff"/>
  <path id="Path_6117" data-name="Path 6117" d="M-127.168,217.527a.887.887,0,0,0-.854.746.887.887,0,0,0,.577.976l22.228,8.345-8.438,24.584h-15.092a.887.887,0,0,0-.887.887.887.887,0,0,0,.887.887h15.726a.887.887,0,0,0,.838-.6l8.923-26a.887.887,0,0,0-.527-1.119l-23.035-8.649a.887.887,0,0,0-.346-.059Z" transform="translate(151.097 -202.456)" fill="#fff"/>
  <path id="Path_6118" data-name="Path 6118" d="M-134.849,215.029a.887.887,0,0,0-.887.887v8.3a.887.887,0,0,0,.887.887.887.887,0,0,0,.887-.887V216.8h23.056v7.971a.887.887,0,0,0,.887.887.887.887,0,0,0,.887-.887v-8.857a.887.887,0,0,0-.887-.887h-24.83Z" transform="translate(146.377 -204.388)" fill="#fff"/>
  <path id="Path_6119" data-name="Path 6119" d="M-131.849,212.031a.887.887,0,0,0-.887.887v4.974a.887.887,0,0,0,.887.887.887.887,0,0,0,.887-.887V213.8h12.415v4.42a.887.887,0,0,0,.887.887.887.887,0,0,0,.887-.887v-5.307a.887.887,0,0,0-.887-.887h-14.188Z" transform="translate(148.698 -206.707)" fill="#fff"/>
</svg>
