<svg xmlns="http://www.w3.org/2000/svg" width="17.969" height="19.027" viewBox="0 0 17.969 19.027">
  <g id="Group_3451" data-name="Group 3451" transform="translate(17849.984 -14603.486)">
    <path id="Subtraction_2" data-name="Subtraction 2" d="M8.453,13.943a8.461,8.461,0,0,1-2.644-.426A11.064,11.064,0,0,1,.1,8.844a.606.606,0,0,1,.011-.672c2.3-3.3,5.265-5.115,8.346-5.115A8.287,8.287,0,0,1,11.11,3.5,11.473,11.473,0,0,1,16.835,8.17a.612.612,0,0,1,0,.661A10.233,10.233,0,0,1,8.453,13.943Z" transform="translate(-17849.465 14604.5)" fill="none" stroke="#898d94" stroke-linecap="round" stroke-linejoin="round" stroke-width="1"/>
    <path id="Subtraction_1" data-name="Subtraction 1" d="M4.5,11.524A3.024,3.024,0,1,1,7.524,8.5,3.029,3.029,0,0,1,4.5,11.524Z" transform="translate(-17845.5 14604.5)" fill="none" stroke="#898d94" stroke-miterlimit="10" stroke-width="1"/>
    <line id="Line_344" data-name="Line 344" x1="9" y2="17" transform="translate(-17845.5 14604.5)" fill="none" stroke="#fff" stroke-linecap="round" stroke-width="1.5"/>
    <line id="Line_349" data-name="Line 349" x1="9" y2="17" transform="translate(-17845.5 14604.5)" fill="none" stroke="#898d94" stroke-linecap="round" stroke-width="1"/>
  </g>
</svg>
