<svg xmlns="http://www.w3.org/2000/svg" width="327" height="52" viewBox="0 0 327 52">
  <g id="Group_2684" data-name="Group 2684" transform="translate(-13148 -3696.604)">
    <g id="Union_2" data-name="Union 2" transform="translate(1059 13635.604)">
      <path id="Path_6262" data-name="Path 6262" d="M12412-9887.5h-319a3.523,3.523,0,0,1-3.5-3.5v-36a3.523,3.523,0,0,1,3.5-3.5h298.9l.1-.26,4-7.21,4,7.21.2.26h11.8a3.523,3.523,0,0,1,3.5,3.5v36A3.523,3.523,0,0,1,12412-9887.5Z" fill="#fcfcfc"/>
      <path id="Path_6263" data-name="Path 6263" d="M12412-9888a2.977,2.977,0,0,0,3-3v-36a2.977,2.977,0,0,0-3-3h-12.1l-.3-.52-3.6-6.421-3.9,6.94H12093a2.977,2.977,0,0,0-3,3v36a2.977,2.977,0,0,0,3,3h319m0,1h-319a4.005,4.005,0,0,1-4-4v-36a4.005,4.005,0,0,1,4-4h298.6l4.4-8,4.4,8h11.6a4.005,4.005,0,0,1,4,4v36A4.005,4.005,0,0,1,12412-9887Z" fill="#ebebeb"/>
    </g>
    <text id="We_ll_send_your_order_confirmation_to_this_email" data-name="We&apos;ll send your order confirmation to this email" transform="translate(13156 3731.603)" fill="#403f3f" font-size="14" font-family="OpenSans-Regular, Open Sans"><tspan x="0" y="0">We&apos;ll send your order confirmation to this email</tspan></text>
  </g>
</svg>
