<svg xmlns="http://www.w3.org/2000/svg" width="327" height="52" viewBox="0 0 327 52">
  <g id="Union_2" data-name="Union 2" transform="translate(-12089 9939)" fill="#fcfcfc">
    <path d="M 12411.9990234375 -9887.5 L 12093.0009765625 -9887.5 C 12091.0703125 -9887.5 12089.5 -9889.0703125 12089.5 -9891.0009765625 L 12089.5 -9927 C 12089.5 -9928.9306640625 12091.0703125 -9930.5009765625 12093.0009765625 -9930.5009765625 L 12391.556640625 -9930.5009765625 L 12391.8505859375 -9930.5009765625 L 12391.994140625 -9930.7578125 L 12396.001953125 -9937.970703125 L 12400.0068359375 -9930.7578125 L 12400.150390625 -9930.5009765625 L 12400.4443359375 -9930.5009765625 L 12411.9990234375 -9930.5009765625 C 12413.9296875 -9930.5009765625 12415.5 -9928.9306640625 12415.5 -9927 L 12415.5 -9891.0009765625 C 12415.5 -9889.0703125 12413.9296875 -9887.5 12411.9990234375 -9887.5 Z" stroke="none"/>
    <path d="M 12411.9990234375 -9888 C 12413.6533203125 -9888 12415 -9889.3466796875 12415 -9891.0009765625 L 12415 -9927 C 12415 -9928.654296875 12413.6533203125 -9930.0009765625 12411.9990234375 -9930.0009765625 L 12399.85546875 -9930.0009765625 L 12399.5703125 -9930.515625 L 12396.001953125 -9936.9404296875 L 12392.14453125 -9930.0009765625 L 12093.0009765625 -9930.0009765625 C 12091.3466796875 -9930.0009765625 12090 -9928.654296875 12090 -9927 L 12090 -9891.0009765625 C 12090 -9889.3466796875 12091.3466796875 -9888 12093.0009765625 -9888 L 12411.9990234375 -9888 M 12411.9990234375 -9887 L 12093.0009765625 -9887 C 12090.7919921875 -9887 12089 -9888.791015625 12089 -9891.0009765625 L 12089 -9927 C 12089 -9929.208984375 12090.7919921875 -9931.0009765625 12093.0009765625 -9931.0009765625 L 12391.556640625 -9931.0009765625 L 12396.001953125 -9939 L 12400.4443359375 -9931.0009765625 L 12411.9990234375 -9931.0009765625 C 12414.2080078125 -9931.0009765625 12416 -9929.208984375 12416 -9927 L 12416 -9891.0009765625 C 12416 -9888.791015625 12414.2080078125 -9887 12411.9990234375 -9887 Z" stroke="none" fill="#ebebeb"/>
  </g>
</svg>
