<svg id="Question" xmlns="http://www.w3.org/2000/svg" width="20.01" height="20.01" viewBox="0 0 20.01 20.01">
  <path id="Path_6241" data-name="Path 6241" d="M10,0a10,10,0,1,0,10,10A10,10,0,0,0,10,0Zm0,18.759A8.754,8.754,0,1,1,18.759,10,8.754,8.754,0,0,1,10,18.759Z" fill="#767f80"/>
  <path id="Path_6242" data-name="Path 6242" d="M13.752,6A3.756,3.756,0,0,0,10,9.752h1.251a2.5,2.5,0,1,1,3.221,2.4,1.867,1.867,0,0,0-1.345,1.793V16h1.251V13.941a.625.625,0,0,1,.454-.6A3.752,3.752,0,0,0,13.752,6Z" transform="translate(-3.747 -2.248)" fill="#767f80"/>
  <rect id="Rectangle_2020" data-name="Rectangle 2020" width="2.158" height="1.079" transform="translate(8.926 15.399)" fill="#767f80"/>
</svg>
