<svg xmlns="http://www.w3.org/2000/svg" width="15.69" height="15.689" viewBox="0 0 15.69 15.689">
  <g id="telephone-fill" transform="translate(0.001 -0.002)">
    <g id="Group_2577" data-name="Group 2577" transform="translate(-0.001 0.002)">
      <path id="Path_6255" data-name="Path 6255" d="M1.847.5a1.711,1.711,0,0,1,2.559.16l1.76,2.261a1.711,1.711,0,0,1,.309,1.465L5.939,6.536a.665.665,0,0,0,.175.631L8.523,9.576a.665.665,0,0,0,.631.175L11.3,9.214a1.711,1.711,0,0,1,1.465.309l2.261,1.759a1.711,1.711,0,0,1,.16,2.56l-1.014,1.014a2.723,2.723,0,0,1-2.821.688,18.272,18.272,0,0,1-6.874-4.334A18.272,18.272,0,0,1,.144,4.338,2.726,2.726,0,0,1,.834,1.517Z" transform="translate(0.001 -0.002)" fill="#641233" fill-rule="evenodd"/>
    </g>
  </g>
</svg>
