<svg xmlns="http://www.w3.org/2000/svg" width="12.516" height="12.516" viewBox="0 0 12.516 12.516">
  <path id="check" d="M6.342,0A6.258,6.258,0,1,0,12.6,6.258,6.258,6.258,0,0,0,6.342,0Zm2.9,4.527-3,4.582,0,0a.57.57,0,0,1-.044.072.562.562,0,0,1-.094.068l-.024.017a.507.507,0,0,1-.153.064c-.018,0-.034.009-.053.013a.528.528,0,0,1-.131,0,.518.518,0,0,1-.092-.014A.553.553,0,0,1,5.56,9.3a.625.625,0,0,1-.075-.03.346.346,0,0,1-.041-.041c-.006-.005-.014-.007-.02-.013L3.678,7.6a.548.548,0,1,1,.743-.8L5.684,7.963l2.64-4.036a.548.548,0,1,1,.917.6Z" transform="translate(-0.084)" fill="#fff"/>
</svg>
