<svg xmlns="http://www.w3.org/2000/svg" width="17" height="9.633" viewBox="0 0 17 9.633">
  <g id="filter" transform="translate(-1.5 -11.25)">
    <path id="Path_11417" data-name="Path 11417" d="M17.65,12.95H2.35a.85.85,0,0,1,0-1.7h15.3a.85.85,0,1,1,0,1.7Z" transform="translate(0 0)" fill="#2b2525"/>
    <path id="Path_11418" data-name="Path 11418" d="M19.483,23.45H9.85a.85.85,0,1,1,0-1.7h9.633a.85.85,0,0,1,0,1.7Z" transform="translate(-4.667 -6.533)" fill="#2b2525"/>
    <path id="Path_11419" data-name="Path 11419" d="M21.683,33.95H18.85a.85.85,0,0,1,0-1.7h2.833a.85.85,0,0,1,0,1.7Z" transform="translate(-10.267 -13.067)" fill="#2b2525"/>
  </g>
</svg>
