<svg xmlns="http://www.w3.org/2000/svg" width="27.099" height="27.099" viewBox="0 0 27.099 27.099">
  <g id="icn_quotecart" transform="translate(-1544.388 -71.388)">
    <path id="Path_11720" data-name="Path 11720" d="M28.8,20.313V22.1a.446.446,0,0,1-.447.447H4.233a.447.447,0,0,1-.447-.447V2.893H2.447a.447.447,0,1,1,0-.893H4.233a.447.447,0,0,1,.447.447V21.652H27.906v-1.34a.447.447,0,1,1,.893,0Zm-20.992,0V13.166a.447.447,0,0,1,.447-.447H11.38V6.02a.447.447,0,0,1,.447-.447h7.146a.447.447,0,0,1,.447.447v6.7h3.127a.447.447,0,0,1,.447.447v7.146a.446.446,0,0,1-.447.447H8.253A.447.447,0,0,1,7.806,20.313Zm14.293-6.7H15.846v6.253H22.1Zm-9.826-.893h6.253V6.466H12.273ZM8.7,19.866h6.253V13.613H8.7Zm2.68,6.253a2.68,2.68,0,1,1-2.68-2.68A2.683,2.683,0,0,1,11.38,26.119Zm-.893,0A1.787,1.787,0,1,0,8.7,27.906,1.788,1.788,0,0,0,10.486,26.119Zm14.293,0a2.68,2.68,0,1,1-2.68-2.68A2.683,2.683,0,0,1,24.779,26.119Zm-.893,0A1.787,1.787,0,1,0,22.1,27.906,1.788,1.788,0,0,0,23.886,26.119Z" transform="translate(1542.538 69.538)" fill="#3e484a" stroke="#3e484a" stroke-width="0.3"/>
  </g>
</svg>
