<svg xmlns="http://www.w3.org/2000/svg" width="24" height="24" viewBox="0 0 24 24">
  <g id="Group_3592" data-name="Group 3592" transform="translate(-2036 -96.693)">
    <rect id="Rectangle_2585" data-name="Rectangle 2585" width="24" height="24" transform="translate(2036 96.693)" fill="none"/>
    <path id="Union_8" data-name="Union 8" d="M4741.5,16188.258a.514.514,0,0,1-.378-.17.534.534,0,0,1-.122-.391l1.207-10.026a.494.494,0,0,1,.5-.438h2.173v-.691a2.88,2.88,0,0,1,2.9-2.848h1.2a2.873,2.873,0,0,1,2.889,2.848v.691h2.173a.5.5,0,0,1,.5.438l1.2,10.026a.508.508,0,0,1-.5.561Zm.561-1h12.623l-1.081-9.027h-1.73v.775h.378v1h-1.775v-1h.4v-.775h-5v.775h.394v1H4744.5v-1h.382v-.775h-1.73Zm8.812-10.022v-.691a1.872,1.872,0,0,0-1.889-1.849h-1.2a1.881,1.881,0,0,0-1.905,1.849v.691Zm-8.17,8.958v-1h11.343v1Z" transform="translate(-2700.211 -16071.943)" fill="#a8b0bb"/>
  </g>
</svg>
