<svg xmlns="http://www.w3.org/2000/svg" width="29.499" height="20.501" viewBox="0 0 29.499 20.501">
  <g id="_x34_7_x5F_thumbnail_view" transform="translate(-13.5 -25.1)">
    <g id="Group_3557" data-name="Group 3557" transform="translate(13.5 25.1)">
      <g id="Group_3556" data-name="Group 3556">
        <path id="Path_11754" data-name="Path 11754" d="M50.927,30.193H34.247A2.554,2.554,0,0,1,31.7,27.647h0A2.554,2.554,0,0,1,34.247,25.1H50.927a2.554,2.554,0,0,1,2.547,2.547h0A2.554,2.554,0,0,1,50.927,30.193Z" transform="translate(-23.975 -25.1)" fill="#641233"/>
        <circle id="Ellipse_174" data-name="Ellipse 174" cx="2.5" cy="2.5" r="2.5" transform="translate(0 0.2)" fill="#641233"/>
      </g>
    </g>
    <g id="Group_3559" data-name="Group 3559" transform="translate(13.5 32.782)">
      <g id="Group_3558" data-name="Group 3558">
        <path id="Path_11755" data-name="Path 11755" d="M50.927,48.393H34.247A2.554,2.554,0,0,1,31.7,45.847h0A2.554,2.554,0,0,1,34.247,43.3H50.927a2.554,2.554,0,0,1,2.547,2.547h0A2.554,2.554,0,0,1,50.927,48.393Z" transform="translate(-23.975 -43.258)" fill="#641233"/>
        <circle id="Ellipse_175" data-name="Ellipse 175" cx="2.547" cy="2.547" r="2.547" fill="#641233"/>
      </g>
    </g>
    <g id="Group_3561" data-name="Group 3561" transform="translate(13.5 40.507)">
      <g id="Group_3560" data-name="Group 3560" transform="translate(0 0)">
        <path id="Path_11756" data-name="Path 11756" d="M50.927,66.493H34.247A2.554,2.554,0,0,1,31.7,63.947h0A2.554,2.554,0,0,1,34.247,61.4H50.927a2.554,2.554,0,0,1,2.547,2.547h0A2.554,2.554,0,0,1,50.927,66.493Z" transform="translate(-23.975 -61.4)" fill="#641233"/>
        <circle id="Ellipse_176" data-name="Ellipse 176" cx="2.547" cy="2.547" r="2.547" fill="#641233"/>
      </g>
    </g>
  </g>
</svg>
