<svg xmlns="http://www.w3.org/2000/svg" width="24" height="24" viewBox="0 0 24 24">
  <g id="Group_3599" data-name="Group 3599" transform="translate(-8573 377)">
    <rect id="Rectangle_2429" data-name="Rectangle 2429" width="24" height="24" transform="translate(8573 -377)" fill="none"/>
    <path id="home" d="M4.485,12.564V10.5a.961.961,0,0,1,.959-.956H7.389a.961.961,0,0,1,.966.956h0V12.57a.825.825,0,0,0,.81.821h1.3a2.328,2.328,0,0,0,2.34-2.316h0V5.2a1.643,1.643,0,0,0-.648-1.283L7.719.379,6.3-.546,5.062.379.648,3.92A1.631,1.631,0,0,0,0,5.2v5.871a2.328,2.328,0,0,0,2.34,2.316h1.3a.832.832,0,0,0,.836-.828h0" transform="translate(8578.306 -371.592)" fill="none" stroke="#a8b0bb" stroke-linecap="round" stroke-linejoin="round" stroke-width="1"/>
  </g>
</svg>
