<svg xmlns="http://www.w3.org/2000/svg" width="24" height="24" viewBox="0 0 24 24">
  <g id="Group_3594" data-name="Group 3594" transform="translate(-2908 -245)">
    <rect id="Rectangle_2585" data-name="Rectangle 2585" width="24" height="24" transform="translate(2908 245)" fill="none"/>
    <g id="Group_3593" data-name="Group 3593" transform="translate(2914 250)">
      <g id="Union_4" data-name="Union 4" transform="translate(-2732 -16072)" fill="#fff">
        <path d="M 2743.251708984375 16085.501953125 L 2732.751220703125 16085.501953125 C 2732.613037109375 16085.501953125 2732.50048828125 16085.3896484375 2732.50048828125 16085.2509765625 L 2732.50048828125 16085.0009765625 C 2732.50048828125 16081.96875 2734.96728515625 16079.501953125 2737.99951171875 16079.501953125 C 2741.03173828125 16079.501953125 2743.49853515625 16081.96875 2743.49853515625 16085.0009765625 L 2743.49853515625 16085.2509765625 C 2743.49853515625 16085.38671875 2743.385498046875 16085.501953125 2743.251708984375 16085.501953125 Z M 2737.99951171875 16077.5 C 2736.621337890625 16077.5 2735.5 16076.37890625 2735.5 16075.0009765625 C 2735.5 16073.6220703125 2736.621337890625 16072.5009765625 2737.99951171875 16072.5009765625 C 2739.377685546875 16072.5009765625 2740.4990234375 16073.6220703125 2740.4990234375 16075.0009765625 C 2740.4990234375 16076.37890625 2739.377685546875 16077.5 2737.99951171875 16077.5 Z" stroke="none"/>
        <path d="M 2742.99853515625 16085.001953125 L 2742.99853515625 16085.0009765625 C 2742.99853515625 16082.244140625 2740.756103515625 16080.001953125 2737.99951171875 16080.001953125 C 2735.242919921875 16080.001953125 2733.00048828125 16082.244140625 2733.00048828125 16085.0009765625 L 2733.00048828125 16085.001953125 L 2742.99853515625 16085.001953125 M 2737.99951171875 16077 C 2739.10205078125 16077 2739.9990234375 16076.103515625 2739.9990234375 16075.0009765625 C 2739.9990234375 16073.8984375 2739.10205078125 16073.0009765625 2737.99951171875 16073.0009765625 C 2736.89697265625 16073.0009765625 2736 16073.8984375 2736 16075.0009765625 C 2736 16076.103515625 2736.89697265625 16077 2737.99951171875 16077 M 2743.251708984375 16086.001953125 L 2732.751220703125 16086.001953125 C 2732.33544921875 16086.001953125 2732.00048828125 16085.6630859375 2732.00048828125 16085.2509765625 L 2732.00048828125 16085.0009765625 C 2732.00048828125 16081.6865234375 2734.68505859375 16079.001953125 2737.99951171875 16079.001953125 C 2741.31396484375 16079.001953125 2743.99853515625 16081.6865234375 2743.99853515625 16085.0009765625 L 2743.99853515625 16085.2509765625 C 2743.99853515625 16085.6630859375 2743.66357421875 16086.001953125 2743.251708984375 16086.001953125 Z M 2737.99951171875 16078 C 2736.34423828125 16078 2735 16076.65625 2735 16075.0009765625 C 2735 16073.341796875 2736.34423828125 16072.0009765625 2737.99951171875 16072.0009765625 C 2739.65869140625 16072.0009765625 2740.9990234375 16073.341796875 2740.9990234375 16075.0009765625 C 2740.9990234375 16076.65625 2739.65869140625 16078 2737.99951171875 16078 Z" stroke="none" fill="#a8b0bb"/>
      </g>
    </g>
  </g>
</svg>
