<svg xmlns="http://www.w3.org/2000/svg" width="31.183" height="20.502" viewBox="0 0 31.183 20.502">
  <g id="_x34_6_x5F_list_view" transform="translate(-2.146 -11.4)">
    <path id="Path_11757" data-name="Path 11757" d="M21.189,20.334h-6.9a.892.892,0,0,1-.888-.888V12.288a.892.892,0,0,1,.888-.888h6.9a.892.892,0,0,1,.888.888v7.159A.892.892,0,0,1,21.189,20.334Z" fill="#641233"/>
    <path id="Path_11792" data-name="Path 11792" d="M21.189,20.334h-6.9a.892.892,0,0,1-.888-.888V12.288a.892.892,0,0,1,.888-.888h6.9a.892.892,0,0,1,.888.888v7.159A.892.892,0,0,1,21.189,20.334Z" transform="translate(-11.253)" fill="#641233"/>
    <path id="Path_11758" data-name="Path 11758" d="M60.489,20.334h-6.9a.892.892,0,0,1-.888-.888V12.288a.892.892,0,0,1,.888-.888h6.9a.892.892,0,0,1,.888.888v7.159A.892.892,0,0,1,60.489,20.334Z" transform="translate(-28.047)" fill="#641233"/>
    <path id="Path_11759" data-name="Path 11759" d="M21.189,60.805h-6.9a.892.892,0,0,1-.888-.888v-7.13a.892.892,0,0,1,.888-.888h6.9a.892.892,0,0,1,.888.888v7.159A.887.887,0,0,1,21.189,60.805Z" transform="translate(0 -28.903)" fill="#641233"/>
    <path id="Path_11793" data-name="Path 11793" d="M21.189,60.805h-6.9a.892.892,0,0,1-.888-.888v-7.13a.892.892,0,0,1,.888-.888h6.9a.892.892,0,0,1,.888.888v7.159A.887.887,0,0,1,21.189,60.805Z" transform="translate(-11.253 -28.903)" fill="#641233"/>
    <path id="Path_11760" data-name="Path 11760" d="M60.489,60.805h-6.9a.892.892,0,0,1-.888-.888v-7.13a.892.892,0,0,1,.888-.888h6.9a.892.892,0,0,1,.888.888v7.159A.887.887,0,0,1,60.489,60.805Z" transform="translate(-28.047 -28.903)" fill="#641233"/>
  </g>
</svg>
