<svg xmlns="http://www.w3.org/2000/svg" width="16.528" height="11.915" viewBox="0 0 16.528 11.915">
  <g id="swaminathan-icons-20" transform="translate(-8.7 -19.8)">
    <path id="Path_11771" data-name="Path 11771" d="M13.165,33.684l-.508.508c.212.106.444.19.656.275l.529-.529A3.714,3.714,0,0,1,13.165,33.684Zm11.978-3.471a7.455,7.455,0,0,0-3.471-3.471l-.487.487a7.1,7.1,0,0,1,3.3,3.132c-1.206,2.455-4.211,4.084-7.513,4.084h-.021a9.976,9.976,0,0,1-2.645-.36l-.529.529a10.484,10.484,0,0,0,3.174.487h.021c3.64,0,6.92-1.862,8.19-4.614l.063-.148ZM16.954,25.6h0c-3.64,0-6.941,1.862-8.19,4.614l-.063.148.063.127a7.8,7.8,0,0,0,3.471,3.492l.487-.487a7.1,7.1,0,0,1-3.3-3.132c1.206-2.455,4.211-4.084,7.513-4.084h.021a9.975,9.975,0,0,1,2.645.36l.529-.529A9.877,9.877,0,0,0,16.954,25.6Zm3.64.656-.508.508c.233.085.466.169.677.254l.487-.487C21.038,26.425,20.805,26.341,20.594,26.256Z" transform="translate(0 -4.573)"/>
    <path id="Path_11772" data-name="Path 11772" d="M36.914,32.4l-.466.466a2.425,2.425,0,0,1,.466.466l.466-.466A4.834,4.834,0,0,0,36.914,32.4ZM32.47,36.827,32,37.314a4.834,4.834,0,0,0,.466.466l.466-.466A3.4,3.4,0,0,1,32.47,36.827Zm5.164-3.6-.487.487a2.72,2.72,0,0,1,.36,1.376,2.813,2.813,0,0,1-2.815,2.815,2.778,2.778,0,0,1-1.376-.36l-.487.487a3.426,3.426,0,0,0,1.862.529,3.5,3.5,0,0,0,3.492-3.492A3.537,3.537,0,0,0,37.634,33.23ZM34.692,31.6A3.491,3.491,0,0,0,31.2,35.071a3.534,3.534,0,0,0,.529,1.862l.487-.487a2.72,2.72,0,0,1-.36-1.376,2.827,2.827,0,0,1,2.815-2.815,2.778,2.778,0,0,1,1.376.36l.487-.487A3.6,3.6,0,0,0,34.692,31.6Zm2.222.8-.466.466a2.425,2.425,0,0,1,.466.466l.466-.466A4.834,4.834,0,0,0,36.914,32.4Z" transform="translate(-17.738 -9.303)"/>
    <path id="Path_11773" data-name="Path 11773" d="M31.506,20.414l-1.545,1.545-.508.508-1.122,1.122-.466.466L23.93,28.011l-.466.466-.91.889-.508.508-1.735,1.735a.309.309,0,0,1-.466,0,.332.332,0,0,1,0-.466L21.39,29.6l.508-.508L23.485,27.5l3.958-3.958,3.64-3.64a.309.309,0,0,1,.466,0A.444.444,0,0,1,31.506,20.414Z" transform="translate(-8.711)"/>
  </g>
</svg>
