<svg xmlns="http://www.w3.org/2000/svg" width="24" height="24" viewBox="0 0 24 24">
  <g id="Group_3590" data-name="Group 3590" transform="translate(-2127 -97)">
    <rect id="Rectangle_2587" data-name="Rectangle 2587" width="24" height="24" transform="translate(2127 97)" fill="none"/>
    <path id="swaminathan-icons-03" d="M19.475,16.314s-.576-.725-1-1.246a2.843,2.843,0,0,0-4.462,0,4.145,4.145,0,0,0,0,5.243c1.543,1.766,5.485,6.135,5.485,6.135s3.923-4.388,5.466-6.135a4.145,4.145,0,0,0,0-5.243,2.843,2.843,0,0,0-4.462,0C20.051,15.589,19.475,16.314,19.475,16.314Z" transform="translate(2119.426 89.274)" fill="none" stroke="#a8b0bb" stroke-linejoin="round" stroke-width="1"/>
  </g>
</svg>
