<svg xmlns="http://www.w3.org/2000/svg" width="15.729" height="15.729" viewBox="0 0 15.729 15.729">
  <g id="swaminathan-icons-12" transform="translate(-12.5 -12.5)">
    <path id="Path_11753" data-name="Path 11753" d="M28.229,15.118a.279.279,0,0,0-.022-.132.022.022,0,0,0-.022-.022c0-.022-.022-.022-.022-.044l-1.5-2.244a.351.351,0,0,0-.308-.176H14.37a.351.351,0,0,0-.308.176l-1.5,2.244c0,.022-.022.022-.022.044a.022.022,0,0,1-.022.022.279.279,0,0,0-.022.132h0V27.855a.385.385,0,0,0,.374.374H27.855a.385.385,0,0,0,.374-.374V15.118Zm-1.078-.374H22.883l-.506-1.5h3.784Zm-5.565-1.5.506,1.5H18.637l.506-1.5Zm-3.1,2.244h3.74v2.772l-1.694-.858a.414.414,0,0,0-.176-.044.518.518,0,0,0-.176.044l-1.716.858V15.492Zm-3.916-2.244h3.784l-.506,1.5H13.578ZM27.481,27.481H13.248V15.492h4.488v3.366a.351.351,0,0,0,.176.308.442.442,0,0,0,.374.022l2.09-1.034,2.09,1.034a.383.383,0,0,0,.55-.33V15.492H27.5V27.481Z" fill="#1f2021"/>
    <rect id="Rectangle_2578" data-name="Rectangle 2578" width="3.366" height="0.748" transform="translate(13.996 24.489)" fill="#1f2021"/>
    <rect id="Rectangle_2579" data-name="Rectangle 2579" width="1.122" height="0.748" transform="translate(18.109 24.489)" fill="#1f2021"/>
    <rect id="Rectangle_2580" data-name="Rectangle 2580" width="2.244" height="0.748" transform="translate(13.996 25.985)" fill="#1f2021"/>
  </g>
</svg>
