<svg xmlns="http://www.w3.org/2000/svg" width="19.93" height="20.502" viewBox="0 0 19.93 20.502">
  <g id="_x34_6_x5F_list_view" transform="translate(-2.146 -11.4)">
    <path id="Path_11757" data-name="Path 11757" d="M24.254,23.851H14.637A1.243,1.243,0,0,1,13.4,22.613V12.637A1.243,1.243,0,0,1,14.637,11.4h9.617a1.243,1.243,0,0,1,1.237,1.237v9.976A1.243,1.243,0,0,1,24.254,23.851Z" transform="translate(-3.415)" fill="#641233"/>
    <path id="Path_11792" data-name="Path 11792" d="M24.522,24.158H14.668A1.274,1.274,0,0,1,13.4,22.89V12.668A1.274,1.274,0,0,1,14.668,11.4h9.855a1.274,1.274,0,0,1,1.268,1.268V22.89A1.274,1.274,0,0,1,24.522,24.158Z" transform="translate(-11.253)" fill="#641233"/>
    <path id="Path_11759" data-name="Path 11759" d="M25.083,65.258H14.732A1.338,1.338,0,0,1,13.4,63.927v-10.7A1.338,1.338,0,0,1,14.732,51.9H25.083a1.338,1.338,0,0,1,1.332,1.332V63.969A1.33,1.33,0,0,1,25.083,65.258Z" transform="translate(-4.338 -33.356)" fill="#641233"/>
    <path id="Path_11793" data-name="Path 11793" d="M25.083,65.258H14.732A1.338,1.338,0,0,1,13.4,63.927v-10.7A1.338,1.338,0,0,1,14.732,51.9H25.083a1.338,1.338,0,0,1,1.332,1.332V63.97A1.33,1.33,0,0,1,25.083,65.258Z" transform="translate(-11.253 -33.356)" fill="#641233"/>
  </g>
</svg>
