<svg xmlns="http://www.w3.org/2000/svg" width="36" height="36" viewBox="0 0 36 36">
  <g id="Group_3577" data-name="Group 3577" transform="translate(-2127 -97)">
    <rect id="Rectangle_2587" data-name="Rectangle 2587" width="36" height="36" transform="translate(2127 97)" fill="none"/>
    <path id="swaminathan-icons-03" d="M22.748,17.5s-.871-1.1-1.517-1.883a4.3,4.3,0,0,0-6.743,0,6.264,6.264,0,0,0,0,7.924c2.332,2.669,8.289,9.272,8.289,9.272s5.929-6.631,8.261-9.272a6.264,6.264,0,0,0,0-7.924,4.3,4.3,0,0,0-6.743,0C23.619,16.407,22.748,17.5,22.748,17.5Z" transform="translate(2122.239 92.476)" fill="none" stroke="#3f494b" stroke-linejoin="round" stroke-width="1"/>
  </g>
</svg>
