<svg xmlns="http://www.w3.org/2000/svg" width="54.69" height="21.502" viewBox="0 0 54.69 21.502">
  <g id="_x34_6_x5F_list_view" transform="translate(-12.9 -10.9)">
    <path id="Path_11757" data-name="Path 11757" d="M21.189,20.334h-6.9a.892.892,0,0,1-.888-.888V12.288a.892.892,0,0,1,.888-.888h6.9a.892.892,0,0,1,.888.888v7.159A.892.892,0,0,1,21.189,20.334Z" fill="none" stroke="#2b2525" stroke-linecap="round" stroke-linejoin="round" stroke-width="1"/>
    <path id="Path_11758" data-name="Path 11758" d="M60.489,20.334h-6.9a.892.892,0,0,1-.888-.888V12.288a.892.892,0,0,1,.888-.888h6.9a.892.892,0,0,1,.888.888v7.159A.892.892,0,0,1,60.489,20.334Z" transform="translate(-28.047)" fill="none" stroke="#2b2525" stroke-linecap="round" stroke-linejoin="round" stroke-width="1"/>
    <path id="Path_11795" data-name="Path 11795" d="M60.489,20.334h-6.9a.892.892,0,0,1-.888-.888V12.288a.892.892,0,0,1,.888-.888h6.9a.892.892,0,0,1,.888.888v7.159A.892.892,0,0,1,60.489,20.334Z" transform="translate(-16.793)" fill="none" stroke="#2b2525" stroke-linecap="round" stroke-linejoin="round" stroke-width="1"/>
    <path id="Path_11796" data-name="Path 11796" d="M60.489,20.334h-6.9a.892.892,0,0,1-.888-.888V12.288a.892.892,0,0,1,.888-.888h6.9a.892.892,0,0,1,.888.888v7.159A.892.892,0,0,1,60.489,20.334Z" transform="translate(-5.54)" fill="none" stroke="#2b2525" stroke-linecap="round" stroke-linejoin="round" stroke-width="1"/>
    <path id="Path_11799" data-name="Path 11799" d="M60.489,20.334h-6.9a.892.892,0,0,1-.888-.888V12.288a.892.892,0,0,1,.888-.888h6.9a.892.892,0,0,1,.888.888v7.159A.892.892,0,0,1,60.489,20.334Z" transform="translate(5.714)" fill="none" stroke="#2b2525" stroke-linecap="round" stroke-linejoin="round" stroke-width="1"/>
    <path id="Path_11759" data-name="Path 11759" d="M21.189,60.805h-6.9a.892.892,0,0,1-.888-.888v-7.13a.892.892,0,0,1,.888-.888h6.9a.892.892,0,0,1,.888.888v7.159A.887.887,0,0,1,21.189,60.805Z" transform="translate(0 -28.903)" fill="none" stroke="#2b2525" stroke-linecap="round" stroke-linejoin="round" stroke-width="1"/>
    <path id="Path_11760" data-name="Path 11760" d="M60.489,60.805h-6.9a.892.892,0,0,1-.888-.888v-7.13a.892.892,0,0,1,.888-.888h6.9a.892.892,0,0,1,.888.888v7.159A.887.887,0,0,1,60.489,60.805Z" transform="translate(-28.047 -28.903)" fill="none" stroke="#2b2525" stroke-linecap="round" stroke-linejoin="round" stroke-width="1"/>
    <path id="Path_11794" data-name="Path 11794" d="M60.489,60.805h-6.9a.892.892,0,0,1-.888-.888v-7.13a.892.892,0,0,1,.888-.888h6.9a.892.892,0,0,1,.888.888v7.159A.887.887,0,0,1,60.489,60.805Z" transform="translate(-16.793 -28.903)" fill="none" stroke="#2b2525" stroke-linecap="round" stroke-linejoin="round" stroke-width="1"/>
    <path id="Path_11797" data-name="Path 11797" d="M60.489,60.805h-6.9a.892.892,0,0,1-.888-.888v-7.13a.892.892,0,0,1,.888-.888h6.9a.892.892,0,0,1,.888.888v7.159A.887.887,0,0,1,60.489,60.805Z" transform="translate(-5.54 -28.903)" fill="none" stroke="#2b2525" stroke-linecap="round" stroke-linejoin="round" stroke-width="1"/>
    <path id="Path_11798" data-name="Path 11798" d="M60.489,60.805h-6.9a.892.892,0,0,1-.888-.888v-7.13a.892.892,0,0,1,.888-.888h6.9a.892.892,0,0,1,.888.888v7.159A.887.887,0,0,1,60.489,60.805Z" transform="translate(5.714 -28.903)" fill="none" stroke="#2b2525" stroke-linecap="round" stroke-linejoin="round" stroke-width="1"/>
  </g>
</svg>
