<svg xmlns="http://www.w3.org/2000/svg" width="76.197" height="20.502" viewBox="0 0 76.197 20.502">
  <g id="_x34_6_x5F_list_view" transform="translate(-13.4 -11.4)">
    <path id="Path_11757" data-name="Path 11757" d="M21.189,20.334h-6.9a.892.892,0,0,1-.888-.888V12.288a.892.892,0,0,1,.888-.888h6.9a.892.892,0,0,1,.888.888v7.159A.892.892,0,0,1,21.189,20.334Z" fill="#641233"/>
    <path id="Path_11758" data-name="Path 11758" d="M60.489,20.334h-6.9a.892.892,0,0,1-.888-.888V12.288a.892.892,0,0,1,.888-.888h6.9a.892.892,0,0,1,.888.888v7.159A.892.892,0,0,1,60.489,20.334Z" transform="translate(-28.047)" fill="#641233"/>
    <path id="Path_11789" data-name="Path 11789" d="M60.489,20.334h-6.9a.892.892,0,0,1-.888-.888V12.288a.892.892,0,0,1,.888-.888h6.9a.892.892,0,0,1,.888.888v7.159A.892.892,0,0,1,60.489,20.334Z" transform="translate(-5.54)" fill="#641233"/>
    <path id="Path_11804" data-name="Path 11804" d="M60.489,20.334h-6.9a.892.892,0,0,1-.888-.888V12.288a.892.892,0,0,1,.888-.888h6.9a.892.892,0,0,1,.888.888v7.159A.892.892,0,0,1,60.489,20.334Z" transform="translate(16.967)" fill="#641233"/>
    <path id="Path_11787" data-name="Path 11787" d="M60.489,20.334h-6.9a.892.892,0,0,1-.888-.888V12.288a.892.892,0,0,1,.888-.888h6.9a.892.892,0,0,1,.888.888v7.159A.892.892,0,0,1,60.489,20.334Z" transform="translate(-16.793)" fill="#641233"/>
    <path id="Path_11790" data-name="Path 11790" d="M60.489,20.334h-6.9a.892.892,0,0,1-.888-.888V12.288a.892.892,0,0,1,.888-.888h6.9a.892.892,0,0,1,.888.888v7.159A.892.892,0,0,1,60.489,20.334Z" transform="translate(5.714)" fill="#641233"/>
    <path id="Path_11805" data-name="Path 11805" d="M60.489,20.334h-6.9a.892.892,0,0,1-.888-.888V12.288a.892.892,0,0,1,.888-.888h6.9a.892.892,0,0,1,.888.888v7.159A.892.892,0,0,1,60.489,20.334Z" transform="translate(28.22)" fill="#641233"/>
    <path id="Path_11759" data-name="Path 11759" d="M21.189,60.805h-6.9a.892.892,0,0,1-.888-.888v-7.13a.892.892,0,0,1,.888-.888h6.9a.892.892,0,0,1,.888.888v7.159A.887.887,0,0,1,21.189,60.805Z" transform="translate(0 -28.903)" fill="#641233"/>
    <path id="Path_11760" data-name="Path 11760" d="M60.489,60.805h-6.9a.892.892,0,0,1-.888-.888v-7.13a.892.892,0,0,1,.888-.888h6.9a.892.892,0,0,1,.888.888v7.159A.887.887,0,0,1,60.489,60.805Z" transform="translate(-28.047 -28.903)" fill="#641233"/>
    <path id="Path_11788" data-name="Path 11788" d="M60.489,60.805h-6.9a.892.892,0,0,1-.888-.888v-7.13a.892.892,0,0,1,.888-.888h6.9a.892.892,0,0,1,.888.888v7.159A.887.887,0,0,1,60.489,60.805Z" transform="translate(-5.54 -28.903)" fill="#641233"/>
    <path id="Path_11803" data-name="Path 11803" d="M60.489,60.805h-6.9a.892.892,0,0,1-.888-.888v-7.13a.892.892,0,0,1,.888-.888h6.9a.892.892,0,0,1,.888.888v7.159A.887.887,0,0,1,60.489,60.805Z" transform="translate(16.967 -28.903)" fill="#641233"/>
    <path id="Path_11786" data-name="Path 11786" d="M60.489,60.805h-6.9a.892.892,0,0,1-.888-.888v-7.13a.892.892,0,0,1,.888-.888h6.9a.892.892,0,0,1,.888.888v7.159A.887.887,0,0,1,60.489,60.805Z" transform="translate(-16.793 -28.903)" fill="#641233"/>
    <path id="Path_11791" data-name="Path 11791" d="M60.489,60.805h-6.9a.892.892,0,0,1-.888-.888v-7.13a.892.892,0,0,1,.888-.888h6.9a.892.892,0,0,1,.888.888v7.159A.887.887,0,0,1,60.489,60.805Z" transform="translate(5.714 -28.903)" fill="#641233"/>
    <path id="Path_11802" data-name="Path 11802" d="M60.489,60.805h-6.9a.892.892,0,0,1-.888-.888v-7.13a.892.892,0,0,1,.888-.888h6.9a.892.892,0,0,1,.888.888v7.159A.887.887,0,0,1,60.489,60.805Z" transform="translate(28.22 -28.903)" fill="#641233"/>
  </g>
</svg>
