<svg xmlns="http://www.w3.org/2000/svg" width="19.93" height="20.522" viewBox="0 0 19.93 20.522">
  <g id="_x34_6_x5F_list_view" transform="translate(-13.4 -11.4)">
    <g id="Path_11757" data-name="Path 11757" fill="none" stroke-linecap="round" stroke-linejoin="round">
      <path d="M31.291,31.922H15.439A2.049,2.049,0,0,1,13.4,29.883V13.439A2.049,2.049,0,0,1,15.439,11.4H31.291a2.049,2.049,0,0,1,2.039,2.039V29.883A2.049,2.049,0,0,1,31.291,31.922Z" stroke="none"/>
      <path d="M 31.29058647155762 30.92156028747559 C 31.56427574157715 30.92156028747559 31.82413482666016 30.81242942810059 32.02229690551758 30.61425971984863 C 32.22045516967773 30.41609954833984 32.32958602905273 30.15625 32.32958602905273 29.88256072998047 L 32.32958602905273 13.43900012969971 C 32.32958602905273 12.87580013275146 31.85378646850586 12.39999961853027 31.29058647155762 12.39999961853027 L 15.43900585174561 12.39999961853027 C 14.87580585479736 12.39999961853027 14.39999580383301 12.87580013275146 14.39999580383301 13.43900012969971 L 14.39999580383301 29.88256072998047 C 14.39999580383301 30.44576072692871 14.87580585479736 30.92156028747559 15.43900585174561 30.92156028747559 L 31.29058647155762 30.92156028747559 M 31.29058647155762 31.92156028747559 L 15.43900585174561 31.92156028747559 C 14.32083606719971 31.92156028747559 13.39999580383301 31.00071907043457 13.39999580383301 29.88256072998047 L 13.39999580383301 13.43900012969971 C 13.39999580383301 12.32083988189697 14.32083606719971 11.39999961853027 15.43900585174561 11.39999961853027 L 31.29058647155762 11.39999961853027 C 32.40875625610352 11.39999961853027 33.32958602905273 12.32083988189697 33.32958602905273 13.43900012969971 L 33.32958602905273 29.88256072998047 C 33.32959747314453 31.00071907043457 32.40875625610352 31.92156028747559 31.29058647155762 31.92156028747559 Z" stroke="none" fill="#2b2525"/>
    </g>
  </g>
</svg>
