<svg xmlns="http://www.w3.org/2000/svg" width="16.64" height="9.56" viewBox="0 0 16.64 9.56">
  <g id="swaminathan-icons-21" transform="translate(-8.4 -26)">
    <path id="Path_11774" data-name="Path 11774" d="M24.976,30.641C23.714,27.861,20.4,26,16.72,26H16.7c-3.657,0-6.972,1.861-8.234,4.641l-.064.128.064.15c1.283,2.78,4.6,4.641,8.256,4.641h.021c3.657,0,6.972-1.861,8.234-4.641l.064-.128ZM16.741,34.9h0c-3.358,0-6.374-1.647-7.593-4.106,1.219-2.46,4.235-4.106,7.571-4.106h.021c3.336,0,6.374,1.647,7.571,4.106C23.093,33.25,20.078,34.9,16.741,34.9Z"/>
    <path id="Path_11775" data-name="Path 11775" d="M39.36,38.3a2.16,2.16,0,1,0,2.16,2.16A2.168,2.168,0,0,0,39.36,38.3Zm0,3.636a1.476,1.476,0,1,1,1.476-1.476A1.452,1.452,0,0,1,39.36,41.936Z" transform="translate(-22.64 -9.669)"/>
  </g>
</svg>
