<svg xmlns="http://www.w3.org/2000/svg" width="36" height="36" viewBox="0 0 36 36">
  <g id="Group_3572" data-name="Group 3572" transform="translate(-1984 -97)">
    <rect id="Rectangle_2585" data-name="Rectangle 2585" width="36" height="36" transform="translate(1984 97)" fill="none"/>
    <g id="swaminathan-icons-07" transform="translate(1976.98 94.447)">
      <path id="Path_11743" data-name="Path 11743" d="M35.105,20.511h0a5.315,5.315,0,0,0,5.305-5.305,5.166,5.166,0,0,0-1.56-3.745A5.281,5.281,0,0,0,35.105,9.9h0A5.315,5.315,0,0,0,29.8,15.205a5.328,5.328,0,0,0,5.305,5.305Zm0-9.759h0a4.456,4.456,0,0,1,4.454,4.454,4.444,4.444,0,0,1-4.454,4.454h0a4.456,4.456,0,0,1-4.454-4.454A4.462,4.462,0,0,1,35.105,10.751Z" transform="translate(-10.1 0)" fill="#3f494b"/>
      <path id="Path_11744" data-name="Path 11744" d="M31.9,51.213A7.2,7.2,0,0,0,26.821,49H23.19a6.876,6.876,0,0,0-4.057,1.333c-1.56,1.135-3.433,3.4-3.433,7.8a1,1,0,0,0,.879,1.078H33.46a1,1,0,0,0,.879-1.078h0A10.064,10.064,0,0,0,31.9,51.213Zm1.532,6.979H16.551a.028.028,0,0,1-.028-.028c0-3.149,1.021-5.476,3.007-6.922a6.247,6.247,0,0,1,3.631-1.192h3.631c3.206,0,6.639,2.553,6.639,8.114C33.46,58.164,33.432,58.192,33.432,58.192Z" transform="translate(0 -28.007)" fill="#3f494b"/>
    </g>
  </g>
</svg>
