<svg xmlns="http://www.w3.org/2000/svg" width="19.9" height="16.213" viewBox="0 0 19.9 16.213">
  <g id="swaminathan-icons-11" transform="translate(-11 -17.9)">
    <path id="Path_11750" data-name="Path 11750" d="M30.037,25.353V20.489a2.776,2.776,0,0,0-2.9-2.589H13.066A1.964,1.964,0,0,0,11,19.73V31.524a2.776,2.776,0,0,0,2.9,2.589H27.16a2.759,2.759,0,0,0,2.9-2.589V29.615a1.14,1.14,0,0,0,.837-1.046V26.346A1.191,1.191,0,0,0,30.037,25.353ZM13.066,18.658H27.134a1.964,1.964,0,0,1,2.066,1.83v1.151a3.1,3.1,0,0,0-2.066-.784H13.066a1.105,1.105,0,1,1,0-2.2ZM27.16,33.407H13.9a1.964,1.964,0,0,1-2.066-1.83V21.221c.758.5-.026.366,15.324.366a1.964,1.964,0,0,1,2.066,1.83v1.83H26.742a2.371,2.371,0,0,0-2.484,2.223,2.371,2.371,0,0,0,2.484,2.223h2.484v1.83A1.987,1.987,0,0,1,27.16,33.407Zm2.876-4.785a.388.388,0,0,1-.418.366H26.742a1.475,1.475,0,1,1,0-2.929h2.9a.388.388,0,0,1,.418.366v2.2Z" transform="translate(0)" fill="#2b2525"/>
    <path id="Path_11751" data-name="Path 11751" d="M22.537,24.43H34.958a.369.369,0,1,0,0-.732H22.537A.369.369,0,1,0,22.537,24.43Z" transform="translate(-8.216 -4.281)" fill="#2b2525"/>
    <path id="Path_11752" data-name="Path 11752" d="M69.255,50.4A1.2,1.2,0,0,0,68,51.5a1.266,1.266,0,0,0,2.51,0A1.2,1.2,0,0,0,69.255,50.4Zm0,1.464a.369.369,0,1,1,0-.732A.369.369,0,1,1,69.255,51.864Z" transform="translate(-42.095 -24.001)" fill="#2b2525"/>
  </g>
</svg>
