<svg xmlns="http://www.w3.org/2000/svg" width="37.244" height="37.244" viewBox="0 0 37.244 37.244">
  <g id="Group_3584" data-name="Group 3584" transform="translate(-2574.548 -97.256)">
    <g id="swaminathan-icons-17" transform="translate(2562.648 86.356)">
      <path id="Path_11764" data-name="Path 11764" d="M42.487,37.88a.433.433,0,0,0-.233-.545l-4.241-2.062a.546.546,0,0,0-.545.078l-1.439,1.439a.493.493,0,0,1-.35.156.422.422,0,0,1-.35-.156,15.985,15.985,0,0,1-2.607-3.813,15.169,15.169,0,0,1-1.556-4.357.373.373,0,0,1,.078-.35.535.535,0,0,1,.311-.195l2.023-.311a.468.468,0,0,0,.389-.506L33.5,22.2a.453.453,0,0,0-.389-.428,4.9,4.9,0,0,0-3.229.506c-3.462,1.751-4.085,7.547-1.4,12.877a13.069,13.069,0,0,0,7,6.653,5.5,5.5,0,0,0,4.241-.195A5.907,5.907,0,0,0,42.487,37.88ZM37.9,36.246,41.476,38a6.208,6.208,0,0,1-.389.895l-3.929-1.906ZM33.034,26.87l-1.128.156-.545-4.318a4.755,4.755,0,0,1,1.284-.078ZM39.3,40.72c-3,1.517-7.469-1.167-9.959-6.03s-2.023-10.076.973-11.593a.136.136,0,0,0,.078-.039l.584,4.2a1.746,1.746,0,0,0-.506.428,1.35,1.35,0,0,0-.233,1.089,17.483,17.483,0,0,0,1.634,4.63,17.7,17.7,0,0,0,2.762,4.007,1.542,1.542,0,0,0,1.05.467,1.344,1.344,0,0,0,.7-.195l4.163,2.023A4.578,4.578,0,0,1,39.3,40.72Z" transform="translate(-4.755 -2.005)" fill="#707070"/>
      <circle id="Ellipse_179" data-name="Ellipse 179" cx="18.122" cy="18.122" r="18.122" transform="translate(12.4 11.4)" fill="none" stroke="#707070" stroke-width="1"/>
    </g>
  </g>
</svg>
