<svg xmlns="http://www.w3.org/2000/svg" width="20.149" height="20.126" viewBox="0 0 20.149 20.126">
  <g id="_314eec5d0c2110d02c2df6c410efc994" data-name="314eec5d0c2110d02c2df6c410efc994" transform="translate(0 -0.079)">
    <path id="Path_173" data-name="Path 173" d="M2.945,20.509h12.62a2.953,2.953,0,0,0,2.945-2.956V11.212a.841.841,0,0,0-1.683,0v6.341a1.269,1.269,0,0,1-1.262,1.273H2.945a1.269,1.269,0,0,1-1.262-1.273V4.956A1.269,1.269,0,0,1,2.945,3.683h6.31A.841.841,0,0,0,9.254,2H2.945A2.953,2.953,0,0,0,0,4.956v12.6a2.953,2.953,0,0,0,2.945,2.956Z" transform="translate(0 -0.305)" fill="#767f80"/>
    <path id="Path_174" data-name="Path 174" d="M9.326,8.883l-.664,3.041a.841.841,0,0,0,.228.775.873.873,0,0,0,.774.226L12.7,12.26a.841.841,0,0,0,.416-.228l7.668-7.668a2.524,2.524,0,0,0,0-3.57,2.583,2.583,0,0,0-3.569,0L9.557,8.469a.841.841,0,0,0-.231.414Zm9.076-6.9a.86.86,0,0,1,1.19,0,.849.849,0,0,1,0,1.189L19,3.768l-1.19-1.19Zm-7.488,7.5,5.7-5.713,1.178,1.184-5.7,5.715L10.58,11Z" transform="translate(-1.372)" fill="#767f80"/>
  </g>
</svg>
