<svg id="Component_62_12" data-name="Component 62 – 12" xmlns="http://www.w3.org/2000/svg" width="17.578" height="24.17" viewBox="0 0 17.578 24.17">
  <path id="Path_233" data-name="Path 233" d="M16.789,7.493v3.3l4.395-4.395L16.789,2V5.3A8.774,8.774,0,0,0,9.362,18.765l1.6-1.6a6.513,6.513,0,0,1-.769-3.076A6.59,6.59,0,0,1,16.789,7.493ZM24.216,9.4l-1.6,1.6a6.513,6.513,0,0,1,.769,3.076,6.59,6.59,0,0,1-6.592,6.592v-3.3l-4.395,4.395,4.395,4.395v-3.3A8.774,8.774,0,0,0,24.216,9.4Z" transform="translate(-8 -2)" fill="#b98457"/>
</svg>
