<svg id="Component_63_16" data-name="Component 63 – 16" xmlns="http://www.w3.org/2000/svg" width="17.349" height="20.624" viewBox="0 0 17.349 20.624">
  <g id="da086273b974cb595139babd4da17772">
    <path id="da086273b974cb595139babd4da17772-2" data-name="da086273b974cb595139babd4da17772" d="M22.622,11.4l-.364,11.029a3.633,3.633,0,0,1-3.644,3.514H11.69a3.633,3.633,0,0,1-3.644-3.51L7.682,11.4a.911.911,0,0,1,1.822-.06l.364,11.032a1.822,1.822,0,0,0,1.822,1.752h6.923a1.822,1.822,0,0,0,1.822-1.755L20.8,11.343a.911.911,0,1,1,1.822.06Zm1.205-1.67a.911.911,0,0,1-.911.911H7.389a.911.911,0,1,1,0-1.822h2.824a1.162,1.162,0,0,0,1.16-1.046,2.725,2.725,0,0,1,2.718-2.454h2.123a2.725,2.725,0,0,1,2.718,2.454,1.162,1.162,0,0,0,1.16,1.046h2.824a.911.911,0,0,1,.911.911ZM12.954,8.822h4.4a3.006,3.006,0,0,1-.232-.86.911.911,0,0,0-.905-.82H14.092a.911.911,0,0,0-.905.82,3.006,3.006,0,0,1-.233.86Zm.917,11.8V12.867a.911.911,0,0,0-1.822,0v7.76a.911.911,0,1,0,1.822,0Zm4.385,0V12.867a.911.911,0,0,0-1.822,0v7.76a.911.911,0,0,0,1.822,0Z" transform="translate(-6.478 -5.322)" fill="#2b2525"/>
  </g>
</svg>
