<svg xmlns="http://www.w3.org/2000/svg" width="133.51" height="133.51" viewBox="0 0 133.51 133.51">
  <path id="_1bee084a8732a26ad620b97d92deea24" data-name="1bee084a8732a26ad620b97d92deea24" d="M71.755,5A66.755,66.755,0,1,0,138.51,71.755,66.836,66.836,0,0,0,71.755,5Zm0,127.576a60.821,60.821,0,1,1,60.821-60.821A60.885,60.885,0,0,1,71.755,132.576ZM105,48.9a2.973,2.973,0,0,1,0,4.2L63.462,94.63a3,3,0,0,1-2.092.86,2.957,2.957,0,0,1-2.092-.875L38.511,73.847a2.969,2.969,0,1,1,4.2-4.2L61.371,88.325,100.816,48.88A2.941,2.941,0,0,1,105,48.9Z" transform="translate(-5 -5)" fill="#641233"/>
</svg>
