<svg id="Component_30_13" data-name="Component 30 – 13" xmlns="http://www.w3.org/2000/svg" width="28" height="28" viewBox="0 0 28 28">
  <rect id="Rectangle_2276" data-name="Rectangle 2276" width="28" height="28" rx="14" fill="#fff"/>
  <g id="heart" transform="translate(4.499 6)">
    <g id="Group_2857" data-name="Group 2857" transform="translate(3.055 2.864)">
      <path id="Path_11424" data-name="Path 11424" d="M6.446,2.214,5.868,1.62a3.026,3.026,0,0,0-4.74.84,3.8,3.8,0,0,0,.253,3.533,14.929,14.929,0,0,0,5.065,5.122,14.937,14.937,0,0,0,5.065-5.122,3.8,3.8,0,0,0,.253-3.533,3.026,3.026,0,0,0-4.74-.84Zm0,9.872C-5.908,3.922,2.642-2.45,6.3.921c.048.044.1.09.142.138q.068-.071.142-.137C10.249-2.451,18.8,3.921,6.446,12.086Z" transform="translate(0 0)" fill="#2b2525"/>
    </g>
  </g>
</svg>
