<svg xmlns="http://www.w3.org/2000/svg" width="48" height="48" viewBox="0 0 48 48">
  <g id="Group_2586" data-name="Group 2586" transform="translate(-1252 -5578)">
    <rect id="Rectangle_54" data-name="Rectangle 54" width="48" height="48" rx="4" transform="translate(1252 5578)" fill="#2b445d"/>
    <path id="af2da8f3726c5aa836b9ea2eeab70e0c" d="M22.273,6.573h0a1.586,1.586,0,1,0,1.586,1.586A1.586,1.586,0,0,0,22.273,6.573Zm6.079,3.2a10.031,10.031,0,0,0-.608-3.211A6.529,6.529,0,0,0,26.211,4.22,6.211,6.211,0,0,0,23.872,2.7a9.648,9.648,0,0,0-3.211-.621C19.26,2,18.811,2,15.216,2s-4.044,0-5.445.079A9.648,9.648,0,0,0,6.559,2.7,6.317,6.317,0,0,0,4.22,4.22,6.211,6.211,0,0,0,2.7,6.559a9.648,9.648,0,0,0-.621,3.211C2,11.172,2,11.621,2,15.216s0,4.044.079,5.445A9.648,9.648,0,0,0,2.7,23.872a6.211,6.211,0,0,0,1.52,2.339,6.317,6.317,0,0,0,2.339,1.52,9.647,9.647,0,0,0,3.211.621c1.4.079,1.85.079,5.445.079s4.044,0,5.445-.079a9.648,9.648,0,0,0,3.211-.621,6.211,6.211,0,0,0,2.339-1.52,6.41,6.41,0,0,0,1.533-2.339,10.031,10.031,0,0,0,.608-3.211c0-1.4.079-1.85.079-5.445S28.432,11.172,28.352,9.771ZM25.973,20.5a7.414,7.414,0,0,1-.449,2.458,4.044,4.044,0,0,1-.991,1.52,4.216,4.216,0,0,1-1.52.991,7.414,7.414,0,0,1-2.458.449c-1.322.066-1.811.079-5.286.079s-3.965,0-5.286-.079a7.573,7.573,0,0,1-2.564-.4,4.322,4.322,0,0,1-1.454-.991,3.965,3.965,0,0,1-.978-1.52A7.322,7.322,0,0,1,4.458,20.5c0-1.322-.079-1.811-.079-5.286s0-3.965.079-5.286a7.322,7.322,0,0,1,.463-2.511A3.965,3.965,0,0,1,5.965,5.965,4.15,4.15,0,0,1,7.418,4.907a7.573,7.573,0,0,1,2.511-.449c1.322,0,1.811-.079,5.286-.079s3.965,0,5.286.079a7.414,7.414,0,0,1,2.458.449,4.044,4.044,0,0,1,1.573,1.057,4.044,4.044,0,0,1,.991,1.454,7.414,7.414,0,0,1,.449,2.511c.066,1.322.079,1.811.079,5.286S26.04,19.181,25.973,20.5ZM15.216,8.436a6.767,6.767,0,1,0,4.806,1.977,6.78,6.78,0,0,0-4.806-1.977Zm0,11.181a4.4,4.4,0,1,1,4.4-4.4,4.4,4.4,0,0,1-4.4,4.4Z" transform="translate(1260.784 5586.784)" fill="#fff"/>
  </g>
</svg>
