<svg xmlns="http://www.w3.org/2000/svg" width="36" height="36" viewBox="0 0 36 36">
  <g id="Group_2586" data-name="Group 2586" transform="translate(-1252 -5578)">
    <rect id="Rectangle_54" data-name="Rectangle 54" width="36" height="36" rx="18" transform="translate(1252 5578)" fill="#641233"/>
    <path id="af2da8f3726c5aa836b9ea2eeab70e0c" d="M17.216,5.432h0a1.19,1.19,0,1,0,1.19,1.19A1.19,1.19,0,0,0,17.216,5.432Zm4.563,2.4a7.528,7.528,0,0,0-.456-2.41,4.9,4.9,0,0,0-1.151-1.756,4.662,4.662,0,0,0-1.756-1.141,7.241,7.241,0,0,0-2.41-.466C14.954,2,14.617,2,11.919,2s-3.035,0-4.087.06a7.241,7.241,0,0,0-2.41.466A4.741,4.741,0,0,0,3.666,3.666,4.662,4.662,0,0,0,2.526,5.422a7.241,7.241,0,0,0-.466,2.41C2,8.884,2,9.221,2,11.919s0,3.035.06,4.087a7.241,7.241,0,0,0,.466,2.41,4.662,4.662,0,0,0,1.141,1.756,4.741,4.741,0,0,0,1.756,1.141,7.241,7.241,0,0,0,2.41.466c1.051.06,1.389.06,4.087.06s3.035,0,4.087-.06a7.241,7.241,0,0,0,2.41-.466,4.662,4.662,0,0,0,1.756-1.141,4.811,4.811,0,0,0,1.151-1.756,7.528,7.528,0,0,0,.456-2.41c0-1.051.06-1.389.06-4.087S21.838,8.884,21.778,7.832Zm-1.785,8.054a5.564,5.564,0,0,1-.337,1.845,3.035,3.035,0,0,1-.744,1.141,3.164,3.164,0,0,1-1.141.744,5.564,5.564,0,0,1-1.845.337c-.992.05-1.359.06-3.968.06s-2.976,0-3.968-.06a5.683,5.683,0,0,1-1.924-.3,3.243,3.243,0,0,1-1.091-.744,2.976,2.976,0,0,1-.734-1.141,5.5,5.5,0,0,1-.4-1.885c0-.992-.06-1.359-.06-3.968s0-2.976.06-3.968a5.5,5.5,0,0,1,.347-1.885,2.976,2.976,0,0,1,.784-1.091,3.115,3.115,0,0,1,1.091-.794,5.684,5.684,0,0,1,1.885-.337c.992,0,1.359-.06,3.968-.06s2.976,0,3.968.06a5.565,5.565,0,0,1,1.845.337,3.035,3.035,0,0,1,1.18.794,3.035,3.035,0,0,1,.744,1.091,5.565,5.565,0,0,1,.337,1.885c.05.992.06,1.359.06,3.968S20.042,14.895,19.993,15.886ZM11.919,6.83a5.078,5.078,0,1,0,3.607,1.484A5.088,5.088,0,0,0,11.919,6.83Zm0,8.391a3.3,3.3,0,1,1,3.3-3.3,3.3,3.3,0,0,1-3.3,3.3Z" transform="translate(1258.094 5584.094)" fill="#fff"/>
  </g>
</svg>
