<svg xmlns="http://www.w3.org/2000/svg" width="33" height="42" viewBox="0 0 33 42">
  <g id="location-filled" transform="translate(-7.5 -3)">
    <path id="Path_6254" data-name="Path 6254" d="M24,3A16.52,16.52,0,0,0,7.5,19.5a16.333,16.333,0,0,0,3.324,9.9s.45.592.523.678L24,45,36.659,30.071c.066-.08.517-.67.517-.67v0A16.328,16.328,0,0,0,40.5,19.5,16.519,16.519,0,0,0,24,3Zm0,22.5a6,6,0,1,1,6-6,6,6,0,0,1-6,6Z" fill="#b98457"/>
    <circle id="IconifyId-17e9079768a-d1151c-107" cx="6" cy="6" r="6" transform="translate(18 13.5)" fill="none"/>
  </g>
</svg>
