<svg xmlns="http://www.w3.org/2000/svg" width="16.898" height="13.277" viewBox="0 0 16.898 13.277">
  <g id="mail" transform="translate(-3 -7.5)">
    <path id="Path_6257" data-name="Path 6257" d="M17.786,7.5H5.112A2.115,2.115,0,0,0,3,9.612v9.053a2.115,2.115,0,0,0,2.112,2.112H17.786A2.115,2.115,0,0,0,19.9,18.665V9.612A2.115,2.115,0,0,0,17.786,7.5Zm-.535,3.494L11.82,15.219a.6.6,0,0,1-.741,0L5.647,10.994a.6.6,0,1,1,.741-.953l5.061,3.936,5.061-3.936a.6.6,0,1,1,.741.953Z" transform="translate(0)" fill="#641233"/>
  </g>
</svg>
