<svg xmlns="http://www.w3.org/2000/svg" width="20.376" height="16.01" viewBox="0 0 20.376 16.01">
  <g id="mail" transform="translate(-3 -7.5)">
    <path id="Path_6257" data-name="Path 6257" d="M20.829,7.5H5.547A2.55,2.55,0,0,0,3,10.047V20.963A2.55,2.55,0,0,0,5.547,23.51H20.829a2.55,2.55,0,0,0,2.547-2.547V10.047A2.55,2.55,0,0,0,20.829,7.5Zm-.645,4.213-6.549,5.094a.728.728,0,0,1-.893,0L6.192,11.713a.728.728,0,1,1,.893-1.149l6.1,4.747,6.1-4.747a.728.728,0,1,1,.893,1.149Z" fill="#232f3e"/>
  </g>
</svg>
