<svg xmlns="http://www.w3.org/2000/svg" width="34.75" height="52.75" viewBox="0 0 34.75 52.75">
  <g id="Group_3469" data-name="Group 3469" transform="translate(9155 -18608.25)">
    <ellipse id="Ellipse_168" data-name="Ellipse 168" cx="11" cy="3" rx="11" ry="3" transform="translate(-9149 18649)" fill="#d91919" opacity="0.46"/>
    <g id="location-filled" transform="translate(-9161.5 18606)">
      <path id="Path_11729" data-name="Path 11729" d="M24,3A16.52,16.52,0,0,0,7.5,19.5a16.333,16.333,0,0,0,3.324,9.9s-.538-.673-.465-.588L24,45,36.659,30.071c.066-.08.517-.67.517-.67v0A16.328,16.328,0,0,0,40.5,19.5,16.519,16.519,0,0,0,24,3Zm0,22.5a6,6,0,1,1,6-6,6,6,0,0,1-6,6Z" fill="#d91919" stroke="#fff" stroke-width="1.5"/>
      <circle id="IconifyId-17e9079768a-d1151c-107" cx="6" cy="6" r="6" transform="translate(18 13.5)" fill="none" stroke="#fff" stroke-width="1.5"/>
    </g>
  </g>
</svg>
