<svg id="Group_2577" data-name="Group 2577" xmlns="http://www.w3.org/2000/svg" width="19.318" height="19.317" viewBox="0 0 19.318 19.317">
  <path id="Path_6255" data-name="Path 6255" d="M2.275.618a2.107,2.107,0,0,1,3.151.2L7.593,3.6a2.106,2.106,0,0,1,.38,1.8l-.66,2.644a.819.819,0,0,0,.215.776l2.966,2.966a.819.819,0,0,0,.778.215l2.643-.66a2.107,2.107,0,0,1,1.8.38L18.5,13.891a2.106,2.106,0,0,1,.2,3.152l-1.248,1.248a3.353,3.353,0,0,1-3.474.848A22.5,22.5,0,0,1,5.514,13.8,22.5,22.5,0,0,1,.178,5.34a3.356,3.356,0,0,1,.849-3.474Z" transform="translate(0.001 -0.002)" fill="#232f3e" fill-rule="evenodd"/>
</svg>
