<svg xmlns="http://www.w3.org/2000/svg" width="16.836" height="14.643" viewBox="0 0 16.836 14.643">
  <path id="phone" d="M24.915,25.064a.462.462,0,0,0-.244-.354l-1.728-.864a1.339,1.339,0,0,1-.731-1.2v-.332H18.646v.332a1.365,1.365,0,0,1-.731,1.2l-1.728.864a.462.462,0,0,0-.244.354l-.709,6.07a.43.43,0,0,0,.111.354.471.471,0,0,0,.332.155H25.2a.4.4,0,0,0,.332-.155.409.409,0,0,0,.111-.354l-.731-6.07Zm-6.4,5.1a.463.463,0,0,1-.133.089.266.266,0,0,1-.177.044.437.437,0,0,1-.31-.133c-.022-.022-.044-.044-.044-.066-.022-.022-.022-.044-.044-.066s-.022-.044-.022-.089v-.089a.437.437,0,0,1,.133-.31.428.428,0,0,1,.62,0c.022.022.044.044.044.066.022.022.022.044.044.066s.022.044.022.089v.089A.437.437,0,0,1,18.513,30.159Zm0-2.215a.437.437,0,0,1-.31.133.266.266,0,0,1-.177-.044c-.044-.022-.111-.044-.133-.089a.428.428,0,0,1,0-.62.428.428,0,0,1,.62,0,.428.428,0,0,1,0,.62Zm0-2.215a.439.439,0,1,1-.62-.62.384.384,0,0,1,.4-.111c.022,0,.044.022.089.022.022.022.044.022.066.044s.044.044.066.044a.428.428,0,0,1,0,.62Zm2.215,4.431a.437.437,0,0,1-.31.133.266.266,0,0,1-.177-.044c-.044-.022-.111-.044-.133-.089a.437.437,0,0,1-.133-.31V29.76c0-.022.022-.066.022-.089s.022-.044.044-.066.022-.044.044-.066.044-.044.066-.044.044-.022.066-.044c.022,0,.044-.022.089-.022a.5.5,0,0,1,.4.111.387.387,0,0,1,.155.31.437.437,0,0,1-.133.31Zm0-2.215a.437.437,0,0,1-.31.133h-.089c-.022,0-.066-.022-.089-.022s-.044-.022-.066-.044-.044-.022-.066-.044a.532.532,0,0,1-.133-.332.437.437,0,0,1,.133-.31c.022-.022.044-.044.066-.044s.044-.022.066-.044c.022,0,.044-.022.089-.022a.5.5,0,0,1,.4.111.428.428,0,0,1,0,.62Zm0-2.215a.439.439,0,1,1-.62-.62.428.428,0,0,1,.62,0,.428.428,0,0,1,0,.62Zm2.215,4.431a.439.439,0,1,1-.62-.62.384.384,0,0,1,.4-.111c.022,0,.044.022.089.022.022.022.044.022.066.044s.044.044.066.044a.428.428,0,0,1,0,.62Zm0-2.215a.437.437,0,0,1-.31.133.266.266,0,0,1-.177-.044c-.044-.022-.111-.044-.133-.089a.437.437,0,0,1-.133-.31v-.089c0-.022.022-.066.022-.089s.022-.044.044-.066.022-.044.044-.066a.428.428,0,0,1,.62,0c.022.022.044.044.044.066.022.022.022.044.044.066s.022.044.022.089v.089A.284.284,0,0,1,22.944,27.944Zm0-2.215a.443.443,0,0,1-.753-.31v-.089c0-.022.022-.044.022-.089,0-.022.022-.044.044-.066s.022-.044.044-.066a.428.428,0,0,1,.62,0c.022.022.044.044.044.066.022.022.022.044.044.066s.022.044.022.089v.089A.284.284,0,0,1,22.944,25.728Zm-.753-4.3H18.646V20.1H22.19Zm6.646-.443a.444.444,0,0,1-.443.443H25.735a.444.444,0,0,1-.443-.443v-.665a1.1,1.1,0,0,0-1.108-1.108H16.652a1.1,1.1,0,0,0-1.108,1.108v.665a.444.444,0,0,1-.443.443H12.443A.444.444,0,0,1,12,20.988,4,4,0,0,1,15.988,17h8.861A4,4,0,0,1,28.836,20.988Z" transform="translate(-12 -17)" fill="#641233"/>
</svg>
