<svg xmlns="http://www.w3.org/2000/svg" width="19.324" height="16.807" viewBox="0 0 19.324 16.807">
  <path id="phone" d="M26.824,26.255a.531.531,0,0,0-.28-.407l-1.983-.992a1.537,1.537,0,0,1-.839-1.373V23.1H19.628v.381a1.567,1.567,0,0,1-.839,1.373l-1.983.992a.531.531,0,0,0-.28.407l-.814,6.967a.494.494,0,0,0,.127.407.541.541,0,0,0,.381.178H27.154a.457.457,0,0,0,.381-.178.469.469,0,0,0,.127-.407l-.839-6.967ZM19.475,32.1a.532.532,0,0,1-.153.1.306.306,0,0,1-.2.051.5.5,0,0,1-.356-.153c-.025-.025-.051-.051-.051-.076-.025-.025-.025-.051-.051-.076s-.025-.051-.025-.1v-.1a.5.5,0,0,1,.153-.356.492.492,0,0,1,.712,0c.025.025.051.051.051.076.025.025.025.051.051.076s.025.051.025.1v.1A.5.5,0,0,1,19.475,32.1Zm0-2.543a.5.5,0,0,1-.356.153.306.306,0,0,1-.2-.051c-.051-.025-.127-.051-.153-.1a.492.492,0,0,1,0-.712.491.491,0,0,1,.712,0,.492.492,0,0,1,0,.712Zm0-2.543a.5.5,0,1,1-.712-.712.441.441,0,0,1,.458-.127c.025,0,.051.025.1.025.025.025.051.025.076.051s.051.051.076.051a.492.492,0,0,1,0,.712ZM22.018,32.1a.5.5,0,0,1-.356.153.306.306,0,0,1-.2-.051c-.051-.025-.127-.051-.153-.1a.5.5,0,0,1-.153-.356v-.1c0-.025.025-.076.025-.1s.025-.051.051-.076.025-.051.051-.076.051-.051.076-.051.051-.025.076-.051c.025,0,.051-.025.1-.025a.578.578,0,0,1,.458.127.444.444,0,0,1,.178.356.5.5,0,0,1-.153.356Zm0-2.543a.5.5,0,0,1-.356.153h-.1c-.025,0-.076-.025-.1-.025s-.051-.025-.076-.051-.051-.025-.076-.051a.611.611,0,0,1-.153-.381.5.5,0,0,1,.153-.356c.025-.025.051-.051.076-.051s.051-.025.076-.051c.025,0,.051-.025.1-.025a.578.578,0,0,1,.458.127.492.492,0,0,1,0,.712Zm0-2.543a.5.5,0,1,1-.712-.712.491.491,0,0,1,.712,0,.492.492,0,0,1,0,.712ZM24.561,32.1a.5.5,0,1,1-.712-.712.441.441,0,0,1,.458-.127c.025,0,.051.025.1.025.025.025.051.025.076.051s.051.051.076.051a.492.492,0,0,1,0,.712Zm0-2.543a.5.5,0,0,1-.356.153.306.306,0,0,1-.2-.051c-.051-.025-.127-.051-.153-.1A.5.5,0,0,1,23.7,29.2v-.1c0-.025.025-.076.025-.1s.025-.051.051-.076.025-.051.051-.076a.492.492,0,0,1,.712,0c.025.025.051.051.051.076.025.025.025.051.051.076s.025.051.025.1v.1A.326.326,0,0,1,24.561,29.561Zm0-2.543a.509.509,0,0,1-.865-.356v-.1c0-.025.025-.051.025-.1,0-.025.025-.051.051-.076s.025-.051.051-.076a.492.492,0,0,1,.712,0c.025.025.051.051.051.076.025.025.025.051.051.076s.025.051.025.1v.1A.326.326,0,0,1,24.561,27.018ZM23.7,22.085H19.628V20.56H23.7Zm7.628-.509a.51.51,0,0,1-.509.509H27.765a.51.51,0,0,1-.509-.509v-.763a1.259,1.259,0,0,0-1.271-1.271H17.34a1.259,1.259,0,0,0-1.271,1.271v.763a.51.51,0,0,1-.509.509H12.509A.51.51,0,0,1,12,21.577,4.59,4.59,0,0,1,16.577,17H26.748A4.59,4.59,0,0,1,31.324,21.577Z" transform="translate(-12 -17)" fill="#232f3e"/>
</svg>
