<svg xmlns="http://www.w3.org/2000/svg" width="36" height="36" viewBox="0 0 36 36">
  <g id="Group_2585" data-name="Group 2585" transform="translate(-1251.748 -5490.078)">
    <rect id="Rectangle_52" data-name="Rectangle 52" width="36" height="36" rx="18" transform="translate(1251.748 5490.078)" fill="#641233"/>
    <path id="_48da478fa6ca63ab6d70df54a8edf0ac" data-name="48da478fa6ca63ab6d70df54a8edf0ac" d="M21.738,5.774a8.379,8.379,0,0,1-2.329.632A4.076,4.076,0,0,0,21.2,4.166a8.1,8.1,0,0,1-2.576.987,4.046,4.046,0,0,0-6.908,3.691A11.488,11.488,0,0,1,3.372,4.61a4.106,4.106,0,0,0-.543,2.043,4.036,4.036,0,0,0,1.8,3.365,4,4,0,0,1-1.836-.5v.049a4.046,4.046,0,0,0,3.257,3.948,3.879,3.879,0,0,1-1.086.168,4.836,4.836,0,0,1-.76-.069,4.056,4.056,0,0,0,3.78,2.8A8.112,8.112,0,0,1,2.987,18.15,7.827,7.827,0,0,1,2,18.091a11.419,11.419,0,0,0,6.208,1.826A11.438,11.438,0,0,0,19.764,8.39V7.867a8.32,8.32,0,0,0,1.974-2.092Z" transform="translate(1258.231 5496.42)" fill="#fff"/>
  </g>
</svg>
