<svg id="Group_1527" data-name="Group 1527" xmlns="http://www.w3.org/2000/svg" width="24" height="24" viewBox="0 0 24 24">
  <rect id="Rectangle_464" data-name="Rectangle 464" width="24" height="24" fill="#232f3e"/>
  <g id="Group_87" data-name="Group 87" transform="translate(3.557 3.829)">
    <g id="Path_36" data-name="Path 36" transform="translate(0 4.062)" fill="none">
      <path d="M1.179,0h14.46l1.248,12.281H0Z" stroke="none"/>
      <path d="M 2.541995048522949 1.500003814697266 L 1.65090274810791 10.78134441375732 L 15.22674369812012 10.78134441375732 L 14.28382301330566 1.500003814697266 L 2.541995048522949 1.500003814697266 M 1.179116249084473 3.814697265625e-06 L 15.63915634155273 3.814697265625e-06 L 16.88685607910156 12.28134441375732 L -3.814697265625e-06 12.28134441375732 L 1.179116249084473 3.814697265625e-06 Z" stroke="none" fill="#fff"/>
    </g>
    <path id="Path_37" data-name="Path 37" d="M12852.643,4654.479a4.683,4.683,0,0,1,1.178-2.748,4.159,4.159,0,0,1,3.146-1.314,4.214,4.214,0,0,1,3.358,1.45,5.053,5.053,0,0,1,.974,2.612" transform="translate(-12848.559 -4650.417)" fill="none" stroke="#fff" stroke-linecap="round" stroke-width="1.5"/>
  </g>
</svg>
