<svg id="Group_1" data-name="Group 1" xmlns="http://www.w3.org/2000/svg" width="132" height="193" viewBox="0 0 132 193">
  <path id="Path_6067" data-name="Path 6067" d="M119.178,62.123a89.011,89.011,0,0,1-1.214,13.153Q131,82.156,131,89.35a6.52,6.52,0,0,1-1.67,4.279,6.885,6.885,0,0,1-5.757,3.057q-4.551,0-10.159-4.89-2.124,4.9-10.311,17.279a50.956,50.956,0,0,0-7.881,18.361q-.913,11.005,11.52,21.564Q59.288,143.493,32.6,117.032A80.25,80.25,0,0,1,15.462,91.49a5.916,5.916,0,0,0-.3-.767q-4.251,2.911-7.735,2.906a7.424,7.424,0,0,1-5.912-2.906A7.328,7.328,0,0,1,0,86.446q0-6.429,11.367-13.156a88.38,88.38,0,0,1-.754-11.317q0-28.916,18.347-46.807Q46.092-1.658,68.987.183,91.738,1.863,105.226,16.7,120.08,33.059,119.178,62.123ZM31.025,36.881A11.809,11.809,0,0,0,42.8,48.674a11.612,11.612,0,0,0,8.561-3.457,11.755,11.755,0,0,0,0-16.659A11.593,11.593,0,0,0,42.8,25.075,11.854,11.854,0,0,0,31.025,36.881ZM61.664,85.315q-2.4,3.46-5.764,3.455t-5.765-3.455a14.74,14.74,0,0,1-2.39-8.6,14.328,14.328,0,0,1,2.39-8.337q2.391-3.459,5.765-3.456t5.764,3.456a14.346,14.346,0,0,1,2.391,8.337A14.759,14.759,0,0,1,61.664,85.315ZM84.81,54.365a11.345,11.345,0,0,0,8.314-3.456,11.681,11.681,0,0,0,3.449-8.6,11.764,11.764,0,1,0-23.527,0,11.682,11.682,0,0,0,3.447,8.6A11.315,11.315,0,0,0,84.81,54.365Z" fill="#641233" fill-rule="evenodd"/>
  <path id="Path_6068" data-name="Path 6068" d="M46.845,34.129a4.4,4.4,0,0,0-3.224,1.328,4.357,4.357,0,0,0-1.336,3.2,4.468,4.468,0,0,0,1.336,3.3,4.581,4.581,0,0,0,6.446,0,4.459,4.459,0,0,0,1.338-3.3,4.35,4.35,0,0,0-1.338-3.2A4.411,4.411,0,0,0,46.845,34.129Z" fill="#6c6368"/>
  <path id="Path_6069" data-name="Path 6069" d="M80.009,37.458a4.411,4.411,0,0,0-3.224,1.327,4.36,4.36,0,0,0-1.336,3.2,4.462,4.462,0,0,0,1.336,3.3,4.573,4.573,0,0,0,6.446,0,4.454,4.454,0,0,0,1.338-3.3,4.351,4.351,0,0,0-1.338-3.2A4.411,4.411,0,0,0,80.009,37.458Z" fill="#6c6368"/>
  <ellipse id="Ellipse_135" data-name="Ellipse 135" cx="66" cy="8.5" rx="66" ry="8.5" transform="translate(0 176)" fill="#d8d8d8" opacity="0.402"/>
</svg>
