<svg xmlns="http://www.w3.org/2000/svg" width="13.742" height="11.187" viewBox="0 0 13.742 11.187">
  <path id="_48da478fa6ca63ab6d70df54a8edf0ac" data-name="48da478fa6ca63ab6d70df54a8edf0ac" d="M15.742,5.19a5.833,5.833,0,0,1-1.622.44,2.838,2.838,0,0,0,1.244-1.56,5.641,5.641,0,0,1-1.793.687,2.817,2.817,0,0,0-4.81,2.57A8,8,0,0,1,2.955,4.379,2.858,2.858,0,0,0,2.577,5.8,2.81,2.81,0,0,0,3.828,8.144a2.783,2.783,0,0,1-1.278-.35v.034a2.817,2.817,0,0,0,2.267,2.748,2.7,2.7,0,0,1-.756.117,3.367,3.367,0,0,1-.529-.048A2.824,2.824,0,0,0,6.164,12.6a5.648,5.648,0,0,1-3.477,1.209A5.449,5.449,0,0,1,2,13.764a7.95,7.95,0,0,0,4.322,1.271A7.963,7.963,0,0,0,14.368,7.01V6.646A5.792,5.792,0,0,0,15.742,5.19Z" transform="translate(-2 -3.849)" fill="#fff"/>
</svg>
