<svg xmlns="http://www.w3.org/2000/svg" width="13.742" height="13.742" viewBox="0 0 13.742 13.742">
  <path id="af2da8f3726c5aa836b9ea2eeab70e0c" d="M12.54,4.377h0a.825.825,0,1,0,.825.825A.825.825,0,0,0,12.54,4.377ZM15.7,6.04a5.215,5.215,0,0,0-.316-1.67,3.394,3.394,0,0,0-.8-1.216,3.229,3.229,0,0,0-1.216-.79,5.016,5.016,0,0,0-1.67-.323C10.973,2,10.74,2,8.871,2s-2.1,0-2.831.041a5.016,5.016,0,0,0-1.67.323,3.284,3.284,0,0,0-1.216.79,3.229,3.229,0,0,0-.79,1.216,5.016,5.016,0,0,0-.323,1.67C2,6.768,2,7,2,8.871s0,2.1.041,2.831a5.016,5.016,0,0,0,.323,1.67,3.229,3.229,0,0,0,.79,1.216,3.284,3.284,0,0,0,1.216.79,5.016,5.016,0,0,0,1.67.323c.728.041.962.041,2.831.041s2.1,0,2.831-.041a5.016,5.016,0,0,0,1.67-.323,3.229,3.229,0,0,0,1.216-.79,3.332,3.332,0,0,0,.8-1.216A5.215,5.215,0,0,0,15.7,11.7c0-.728.041-.962.041-2.831S15.742,6.768,15.7,6.04Zm-1.237,5.579A3.855,3.855,0,0,1,14.23,12.9a2.1,2.1,0,0,1-.515.79,2.192,2.192,0,0,1-.79.515,3.855,3.855,0,0,1-1.278.234c-.687.034-.941.041-2.748.041s-2.061,0-2.748-.041a3.937,3.937,0,0,1-1.333-.206,2.247,2.247,0,0,1-.756-.515,2.061,2.061,0,0,1-.508-.79,3.806,3.806,0,0,1-.275-1.305c0-.687-.041-.941-.041-2.748s0-2.061.041-2.748a3.806,3.806,0,0,1,.24-1.305,2.061,2.061,0,0,1,.543-.756,2.157,2.157,0,0,1,.756-.55,3.937,3.937,0,0,1,1.305-.234c.687,0,.941-.041,2.748-.041s2.061,0,2.748.041a3.855,3.855,0,0,1,1.278.234,2.1,2.1,0,0,1,.818.55,2.1,2.1,0,0,1,.515.756,3.855,3.855,0,0,1,.234,1.305c.034.687.041.941.041,2.748S14.5,10.932,14.464,11.619ZM8.871,5.346a3.518,3.518,0,1,0,2.5,1.028A3.525,3.525,0,0,0,8.871,5.346Zm0,5.813a2.288,2.288,0,1,1,2.288-2.288,2.288,2.288,0,0,1-2.288,2.288Z" transform="translate(-2 -2)" fill="#fff"/>
</svg>
