<svg xmlns="http://www.w3.org/2000/svg" width="36" height="36" viewBox="0 0 36 36">
  <g id="Group_2417" data-name="Group 2417" transform="translate(-1767 -25)">
    <rect id="Rectangle_2057" data-name="Rectangle 2057" width="36" height="36" transform="translate(1767 25)" fill="none"/>
    <path id="_12086c0c7d4930b30b808a8b7c4323a0" data-name="12086c0c7d4930b30b808a8b7c4323a0" d="M138.606,115.894a5.887,5.887,0,1,1,5.886-5.887A5.887,5.887,0,0,1,138.606,115.894Zm0-10.076a4.19,4.19,0,1,0,4.189,4.19A4.19,4.19,0,0,0,138.606,105.818ZM148,128.5H129.208l-.848-.848a10.246,10.246,0,0,1,20.491,0Zm-17.906-1.7h17.017a8.55,8.55,0,0,0-17.017,0Z" transform="translate(1645.858 -73.105)" fill="#3f494b"/>
  </g>
</svg>
