<svg xmlns="http://www.w3.org/2000/svg" width="36" height="36" viewBox="0 0 36 36">
  <g id="Group_2427" data-name="Group 2427" transform="translate(-1824 -27)">
    <g id="Group_2419" data-name="Group 2419" transform="translate(-6 -3)">
      <rect id="Rectangle_2057" data-name="Rectangle 2057" width="36" height="36" transform="translate(1830 30)" fill="none"/>
      <g id="Group_87" data-name="Group 87" transform="translate(1837.2 37.2)">
        <g id="Path_36" data-name="Path 36" transform="translate(0 5.421)" fill="none">
          <path d="M1.574,0h19.3L22.54,16.393H0Z" stroke="none"/>
          <path d="M 2.664163589477539 1.200002670288086 L 1.320734024047852 15.19290351867676 L 21.21216011047363 15.19290351867676 L 19.79058265686035 1.200002670288086 L 2.664163589477539 1.200002670288086 M 1.5738525390625 3.814697265625e-06 L 20.87484359741211 3.814697265625e-06 L 22.54024314880371 16.39290237426758 L 3.814697265625e-06 16.39290237426758 L 1.5738525390625 3.814697265625e-06 Z" stroke="none" fill="#3e484a"/>
        </g>
        <path id="Path_37" data-name="Path 37" d="M12852.644,4655.839a6.25,6.25,0,0,1,1.57-3.667,5.557,5.557,0,0,1,4.2-1.754,5.626,5.626,0,0,1,4.481,1.935,6.761,6.761,0,0,1,1.3,3.486" transform="translate(-12847.192 -4650.417)" fill="none" stroke="#3e484a" stroke-linecap="round" stroke-width="1.2"/>
      </g>
    </g>
  </g>
</svg>
