<svg id="search" xmlns="http://www.w3.org/2000/svg" width="19.285" height="19.286" viewBox="0 0 19.285 19.286">
  <path id="Path_6060" data-name="Path 6060" d="M14.478,11.367a5.37,5.37,0,0,0-1.886,1.225,5.433,5.433,0,0,0-1.476,4.92.4.4,0,0,0,.394.323.409.409,0,0,0,.08-.008.4.4,0,0,0,.315-.473,4.629,4.629,0,0,1,1.256-4.192,4.568,4.568,0,0,1,1.6-1.043.4.4,0,0,0-.285-.751Zm1.9-.36a.913.913,0,0,0-.144.01.408.408,0,0,0-.336.465.393.393,0,0,0,.457.329h.023a.4.4,0,0,0,0-.8Z" transform="translate(-8.997 -8.996)"/>
  <path id="Path_6061" data-name="Path 6061" d="M20.022,16.91a7.416,7.416,0,1,0-3.106,3.11l3.335,3.335,3.106-3.11ZM8.75,18.132a6.636,6.636,0,1,1,9.383,0A6.64,6.64,0,0,1,8.75,18.132Zm15.9,3.4-.723-.723-3.106,3.11.723.723a2.2,2.2,0,1,0,3.106-3.11Z" transform="translate(-6.004 -6.003)" fill="#030303"/>
</svg>
