<svg xmlns="http://www.w3.org/2000/svg" width="26.432" height="21.517" viewBox="0 0 26.432 21.517">
  <path id="_48da478fa6ca63ab6d70df54a8edf0ac" data-name="48da478fa6ca63ab6d70df54a8edf0ac" d="M28.432,6.427a11.22,11.22,0,0,1-3.119.846,5.458,5.458,0,0,0,2.392-3,10.85,10.85,0,0,1-3.449,1.322A5.418,5.418,0,0,0,15,10.537,15.383,15.383,0,0,1,3.837,4.868,5.5,5.5,0,0,0,3.11,7.6,5.405,5.405,0,0,0,5.515,12.11a5.352,5.352,0,0,1-2.458-.674V11.5a5.418,5.418,0,0,0,4.361,5.286,5.194,5.194,0,0,1-1.454.225,6.476,6.476,0,0,1-1.018-.093,5.432,5.432,0,0,0,5.062,3.753A10.863,10.863,0,0,1,3.322,23,10.481,10.481,0,0,1,2,22.921a15.291,15.291,0,0,0,8.313,2.445A15.317,15.317,0,0,0,25.788,9.93v-.7a11.141,11.141,0,0,0,2.643-2.8Z" transform="translate(-2 -3.85)" fill="#1ca0f2"/>
</svg>
