<svg id="Group_384" data-name="Group 384" xmlns="http://www.w3.org/2000/svg" width="24" height="24" viewBox="0 0 24 24">
  <rect id="Rectangle_464" data-name="Rectangle 464" width="24" height="24" fill="#232f3e"/>
  <g id="icon_user_1" data-name="icon_user 1" transform="translate(3 3)">
    <rect id="icon_user_1-2" data-name="icon_user 1" width="17.713" height="17.713" transform="translate(0)" fill="none"/>
    <path id="Vector" d="M17.607,17.3a2.133,2.133,0,0,1-1.662.79H2.144A2.147,2.147,0,0,1,.046,15.5,9.191,9.191,0,0,1,6.17,8.653a4.805,4.805,0,1,1,5.752,0,9.191,9.191,0,0,1,4.763,3.619.707.707,0,1,1-1.174.787,7.773,7.773,0,0,0-6.278-3.45q-.094,0-.188,0t-.187,0a7.807,7.807,0,0,0-7.428,6.182.738.738,0,0,0,.15.619.718.718,0,0,0,.565.269h13.8a.718.718,0,0,0,.565-.269.738.738,0,0,0,.15-.619.707.707,0,0,1,1.384-.288,2.146,2.146,0,0,1-.437,1.8ZM8.874,8.193l.171,0,.172,0a3.392,3.392,0,1,0-.343,0Z" transform="translate(0 0)" fill="#fff"/>
  </g>
</svg>
