<svg xmlns="http://www.w3.org/2000/svg" width="260" height="693" viewBox="0 0 260 693">
  <g id="Group_3616" data-name="Group 3616" transform="translate(-41 -622)">
    <rect id="Rectangle_2602" data-name="Rectangle 2602" width="133" height="27" transform="translate(41 622)" fill="#e2e2e2"/>
    <g id="Group_3603" data-name="Group 3603" transform="translate(-19485 16791)">
      <rect id="Rectangle_2604" data-name="Rectangle 2604" width="260" height="14" transform="translate(19526 -15490)" fill="#e2e2e2"/>
      <rect id="Rectangle_2630" data-name="Rectangle 2630" width="260" height="14" transform="translate(19526 -15512)" fill="#e2e2e2"/>
      <rect id="Rectangle_2631" data-name="Rectangle 2631" width="260" height="14" transform="translate(19526 -15534)" fill="#e2e2e2"/>
      <rect id="Rectangle_2632" data-name="Rectangle 2632" width="260" height="14" transform="translate(19526 -15556)" fill="#e2e2e2"/>
      <rect id="Rectangle_2605" data-name="Rectangle 2605" width="260" height="14" transform="translate(19526 -15578)" fill="#e2e2e2"/>
      <rect id="Rectangle_2606" data-name="Rectangle 2606" width="260" height="14" transform="translate(19526 -15600)" fill="#e2e2e2"/>
      <rect id="Rectangle_2607" data-name="Rectangle 2607" width="260" height="14" transform="translate(19526 -15622)" fill="#e2e2e2"/>
      <rect id="Rectangle_2608" data-name="Rectangle 2608" width="260" height="14" transform="translate(19526 -15644)" fill="#e2e2e2"/>
      <rect id="Rectangle_2609" data-name="Rectangle 2609" width="260" height="14" transform="translate(19526 -15666)" fill="#e2e2e2"/>
      <rect id="Rectangle_2610" data-name="Rectangle 2610" width="260" height="14" transform="translate(19526 -15688)" fill="#e2e2e2"/>
      <rect id="Rectangle_2611" data-name="Rectangle 2611" width="260" height="14" transform="translate(19526 -15710)" fill="#e2e2e2"/>
      <rect id="Rectangle_2612" data-name="Rectangle 2612" width="260" height="14" transform="translate(19526 -15732)" fill="#e2e2e2"/>
      <rect id="Rectangle_2613" data-name="Rectangle 2613" width="260" height="14" transform="translate(19526 -15754)" fill="#e2e2e2"/>
      <rect id="Rectangle_2614" data-name="Rectangle 2614" width="260" height="14" transform="translate(19526 -15776)" fill="#e2e2e2"/>
      <rect id="Rectangle_2615" data-name="Rectangle 2615" width="260" height="14" transform="translate(19526 -15798)" fill="#e2e2e2"/>
      <rect id="Rectangle_2616" data-name="Rectangle 2616" width="260" height="14" transform="translate(19526 -15820)" fill="#e2e2e2"/>
      <rect id="Rectangle_2617" data-name="Rectangle 2617" width="260" height="14" transform="translate(19526 -15842)" fill="#e2e2e2"/>
      <rect id="Rectangle_2618" data-name="Rectangle 2618" width="260" height="14" transform="translate(19526 -15864)" fill="#e2e2e2"/>
      <rect id="Rectangle_2619" data-name="Rectangle 2619" width="260" height="14" transform="translate(19526 -15886)" fill="#e2e2e2"/>
      <rect id="Rectangle_2620" data-name="Rectangle 2620" width="260" height="14" transform="translate(19526 -15908)" fill="#e2e2e2"/>
      <rect id="Rectangle_2621" data-name="Rectangle 2621" width="260" height="14" transform="translate(19526 -15930)" fill="#e2e2e2"/>
      <rect id="Rectangle_2622" data-name="Rectangle 2622" width="260" height="14" transform="translate(19526 -15952)" fill="#e2e2e2"/>
      <rect id="Rectangle_2623" data-name="Rectangle 2623" width="260" height="14" transform="translate(19526 -15974)" fill="#e2e2e2"/>
      <rect id="Rectangle_2624" data-name="Rectangle 2624" width="260" height="14" transform="translate(19526 -15996)" fill="#e2e2e2"/>
      <rect id="Rectangle_2625" data-name="Rectangle 2625" width="260" height="14" transform="translate(19526 -16018)" fill="#e2e2e2"/>
      <rect id="Rectangle_2626" data-name="Rectangle 2626" width="260" height="14" transform="translate(19526 -16040)" fill="#e2e2e2"/>
      <rect id="Rectangle_2627" data-name="Rectangle 2627" width="260" height="14" transform="translate(19526 -16062)" fill="#e2e2e2"/>
      <rect id="Rectangle_2628" data-name="Rectangle 2628" width="260" height="14" transform="translate(19526 -16084)" fill="#e2e2e2"/>
      <rect id="Rectangle_2629" data-name="Rectangle 2629" width="260" height="14" transform="translate(19526 -16106)" fill="#e2e2e2"/>
      <rect id="Rectangle_2603" data-name="Rectangle 2603" width="260" height="14" transform="translate(19526 -16128)" fill="#e2e2e2"/>
    </g>
  </g>
</svg>
