<svg xmlns="http://www.w3.org/2000/svg" width="20" height="20" viewBox="0 0 20 20">
  <path id="check" d="M10.084,0a10,10,0,1,0,10,10A10,10,0,0,0,10.084,0Zm4.632,7.234-4.79,7.321s0,0,0,0a.911.911,0,0,1-.07.115.9.9,0,0,1-.15.109c-.012.009-.025.019-.039.028a.81.81,0,0,1-.245.1c-.029.007-.055.015-.085.02a.844.844,0,0,1-.21,0,.828.828,0,0,1-.146-.022.885.885,0,0,1-.144-.058,1,1,0,0,1-.12-.048.553.553,0,0,1-.066-.066c-.01-.009-.023-.011-.033-.02L5.826,12.143a.875.875,0,1,1,1.188-1.285l2.019,1.868,4.219-6.449a.875.875,0,1,1,1.465.957Z" transform="translate(-0.084)" fill="#5a960b"/>
</svg>
