<svg xmlns="http://www.w3.org/2000/svg" width="11.447" height="13.607" viewBox="0 0 11.447 13.607">
  <path id="da086273b974cb595139babd4da17772" d="M17.13,9.334l-.24,7.277a2.4,2.4,0,0,1-2.4,2.318H9.917a2.4,2.4,0,0,1-2.4-2.316l-.24-7.279a.6.6,0,0,1,1.2-.04l.24,7.279a1.2,1.2,0,0,0,1.2,1.156h4.568a1.2,1.2,0,0,0,1.2-1.158l.24-7.276a.6.6,0,1,1,1.2.04Zm.8-1.1a.6.6,0,0,1-.6.6H7.079a.6.6,0,1,1,0-1.2H8.942a.767.767,0,0,0,.765-.69A1.8,1.8,0,0,1,11.5,5.322h1.4a1.8,1.8,0,0,1,1.793,1.619.767.767,0,0,0,.765.69h1.863a.6.6,0,0,1,.6.6Zm-7.174-.6h2.9a1.983,1.983,0,0,1-.153-.567.6.6,0,0,0-.6-.541H11.5a.6.6,0,0,0-.6.541,1.984,1.984,0,0,1-.154.567Zm.605,7.787V10.3a.6.6,0,0,0-1.2,0v5.12a.6.6,0,1,0,1.2,0Zm2.893,0V10.3a.6.6,0,1,0-1.2,0v5.12a.6.6,0,1,0,1.2,0Z" transform="translate(-6.478 -5.322)" fill="#767f80"/>
</svg>
