<svg id="Group_2891" data-name="Group 2891" xmlns="http://www.w3.org/2000/svg" width="14.037" height="14.037" viewBox="0 0 14.037 14.037">
  <path id="Path_11433" data-name="Path 11433" d="M14.037,7.019A7.019,7.019,0,1,1,7.019,0a7.019,7.019,0,0,1,7.019,7.019ZM10.554,4.36a.658.658,0,0,0-.948.019L6.56,8.262,4.723,6.425a.658.658,0,0,0-.93.93L6.115,9.677a.658.658,0,0,0,.947-.018l3.5-4.378a.658.658,0,0,0-.009-.921Z" fill="#d91919"/>
  <circle id="Ellipse_134" data-name="Ellipse 134" cx="5" cy="5" r="5" transform="translate(2 2.019)" fill="#d91919"/>
  <path id="Path_11721" data-name="Path 11721" d="M2.441-7.731V-.72H1.162V-7.731Zm-.63-2.653a.807.807,0,0,1,.525.178.7.7,0,0,1,.219.579.713.713,0,0,1-.219.582.8.8,0,0,1-.525.181.782.782,0,0,1-.525-.181.724.724,0,0,1-.213-.582.714.714,0,0,1,.213-.579A.791.791,0,0,1,1.811-10.384Z" transform="translate(5.204 12.57)" fill="#fff"/>
</svg>
