<svg xmlns="http://www.w3.org/2000/svg" width="24" height="24" viewBox="0 0 24 24">
  <g id="Group_2858" data-name="Group 2858" transform="translate(2050 -15003.024)">
    <rect id="Rectangle_2276" data-name="Rectangle 2276" width="24" height="24" transform="translate(-2050 15003.024)" fill="none"/>
    <g id="view" transform="translate(-2047.015 15002.014)">
      <path id="Path_11709" data-name="Path 11709" d="M16.5,12.841A8.362,8.362,0,0,0,9.016,7.5,8.362,8.362,0,0,0,1.53,12.841a.5.5,0,0,0,0,.341,8.362,8.362,0,0,0,7.485,5.341A8.362,8.362,0,0,0,16.5,13.181a.5.5,0,0,0,0-.341ZM9.016,17.52a7.44,7.44,0,0,1-6.478-4.509A7.44,7.44,0,0,1,9.016,8.5a7.44,7.44,0,0,1,6.478,4.509A7.44,7.44,0,0,1,9.016,17.52Z" transform="translate(0 0)" fill="#2b2525"/>
      <path id="Path_11710" data-name="Path 11710" d="M18.006,15a3.006,3.006,0,1,0,3.006,3.006A3.006,3.006,0,0,0,18.006,15Zm0,5.01a2,2,0,1,1,2-2A2,2,0,0,1,18.006,20.01Z" transform="translate(-8.991 -4.995)" fill="#2b2525"/>
    </g>
  </g>
</svg>
