<svg xmlns="http://www.w3.org/2000/svg" width="24" height="24" viewBox="0 0 24 24">
  <g id="Group_2858" data-name="Group 2858" transform="translate(2050 -15003.024)">
    <g id="heart" transform="translate(-2046.588 15007.266)">
      <g id="Group_2857" data-name="Group 2857" transform="translate(0 0)">
        <path id="Path_11424" data-name="Path 11424" d="M8.106,2.784l-.726-.747a3.805,3.805,0,0,0-5.96,1.056,4.778,4.778,0,0,0,.318,4.443c.932,1.839,2.871,4.042,6.369,6.441,3.5-2.4,5.436-4.6,6.369-6.441a4.775,4.775,0,0,0,.318-4.443,3.805,3.805,0,0,0-5.96-1.057Zm0,12.413C-7.429,4.932,3.322-3.08,7.927,1.158c.061.056.121.113.178.173q.086-.09.178-.172C12.888-3.082,23.64,4.931,8.106,15.2Z" transform="translate(0 0)" fill="#2b2525"/>
      </g>
    </g>
    <rect id="Rectangle_2276" data-name="Rectangle 2276" width="24" height="24" transform="translate(-2050 15003.024)" fill="none"/>
  </g>
</svg>
