<svg id="plus" xmlns="http://www.w3.org/2000/svg" width="16.611" height="16.611" viewBox="0 0 16.611 16.611">
  <path id="Path_143" data-name="Path 143" d="M16.181,7.875A.923.923,0,0,1,17.1,8.8v7.383a.923.923,0,0,1-.923.923H8.8a.923.923,0,0,1,0-1.846h6.46V8.8A.923.923,0,0,1,16.181,7.875Z" transform="translate(-7.875 -7.875)" fill="#47423d" fill-rule="evenodd"/>
  <path id="Path_144" data-name="Path 144" d="M16.875,17.8a.923.923,0,0,1,.923-.923h7.383a.923.923,0,0,1,0,1.846h-6.46v6.46a.923.923,0,0,1-1.846,0Z" transform="translate(-9.492 -9.492)" fill="#47423d" fill-rule="evenodd"/>
</svg>
