<svg id="Group_2335" data-name="Group 2335" xmlns="http://www.w3.org/2000/svg" width="60" height="60" viewBox="0 0 60 60">
  <g id="Ellipse_1" data-name="Ellipse 1" fill="#fff" stroke="#0f1111" stroke-width="2">
    <circle cx="30" cy="30" r="30" stroke="none"/>
    <circle cx="30" cy="30" r="29" fill="none"/>
  </g>
  <g id="arrow-down" transform="translate(15.485 39.238) rotate(-90)">
    <path id="Path_32" data-name="Path 32" d="M.388.388a1.319,1.319,0,0,1,1.868,0L9.238,7.373,16.221.387A1.321,1.321,0,0,1,18.09,2.255l-7.917,7.917a1.319,1.319,0,0,1-1.868,0L.388,2.255a1.319,1.319,0,0,1,0-1.868Z" transform="translate(0 18.471)" fill="#0f1111" fill-rule="evenodd"/>
    <path id="Path_33" data-name="Path 33" d="M1.319,0A1.319,1.319,0,0,1,2.639,1.319V25.07A1.319,1.319,0,1,1,0,25.07V1.319A1.319,1.319,0,0,1,1.319,0Z" transform="translate(7.919)" fill="#0f1111" fill-rule="evenodd"/>
  </g>
</svg>
