<svg xmlns="http://www.w3.org/2000/svg" width="16.722" height="16.722" viewBox="0 0 16.722 16.722">
  <path id="check" d="M8.445,0a8.361,8.361,0,1,0,8.361,8.361A8.361,8.361,0,0,0,8.445,0Zm3.873,6.048-4,6.121s0,0,0,0a.762.762,0,0,1-.059.1.751.751,0,0,1-.125.091l-.032.023a.677.677,0,0,1-.2.086c-.024.006-.046.013-.071.017a.705.705,0,0,1-.176,0,.692.692,0,0,1-.122-.019.74.74,0,0,1-.12-.048.835.835,0,0,1-.1-.04.462.462,0,0,1-.055-.055c-.008-.007-.019-.009-.027-.017L4.885,10.152a.732.732,0,1,1,.993-1.074l1.688,1.562,3.527-5.392a.732.732,0,1,1,1.225.8Z" transform="translate(-0.084)" fill="#5a960b"/>
</svg>
