<svg xmlns="http://www.w3.org/2000/svg" width="15.143" height="14.045" viewBox="0 0 15.143 14.045">
  <g id="warning" transform="translate(-0.801)">
    <path id="Path_6261" data-name="Path 6261" d="M9.453,11.606V10a.269.269,0,0,0-.08-.2.26.26,0,0,0-.19-.08H7.562a.26.26,0,0,0-.19.08.269.269,0,0,0-.08.2v1.6a.269.269,0,0,0,.08.2.26.26,0,0,0,.19.08H9.183a.26.26,0,0,0,.19-.08A.269.269,0,0,0,9.453,11.606ZM9.436,8.449l.152-3.874a.186.186,0,0,0-.084-.16.326.326,0,0,0-.2-.093H7.444a.326.326,0,0,0-.2.093.2.2,0,0,0-.084.177L7.3,8.449a.162.162,0,0,0,.084.139.364.364,0,0,0,.2.055H9.149a.343.343,0,0,0,.2-.055A.188.188,0,0,0,9.436,8.449ZM9.318.566,15.8,12.45a1.007,1.007,0,0,1-.017,1.064,1.08,1.08,0,0,1-.928.532H1.89a1.08,1.08,0,0,1-.928-.532A1.007,1.007,0,0,1,.945,12.45L7.427.566a1.078,1.078,0,0,1,.4-.414,1.067,1.067,0,0,1,1.1,0A1.078,1.078,0,0,1,9.318.566Z" fill="#846c21"/>
  </g>
</svg>
