<svg xmlns="http://www.w3.org/2000/svg" width="11.989" height="11.12" viewBox="0 0 11.989 11.12">
  <path id="Path_6261" data-name="Path 6261" d="M7.651,9.189V7.919a.213.213,0,0,0-.063-.157.206.206,0,0,0-.15-.063H6.154A.206.206,0,0,0,6,7.762a.213.213,0,0,0-.063.157v1.27A.213.213,0,0,0,6,9.346a.206.206,0,0,0,.15.063H7.437a.206.206,0,0,0,.15-.063A.213.213,0,0,0,7.651,9.189Zm-.013-2.5.12-3.067A.147.147,0,0,0,7.691,3.5a.258.258,0,0,0-.16-.074H6.061A.258.258,0,0,0,5.9,3.5a.16.16,0,0,0-.067.14l.114,3.054a.128.128,0,0,0,.067.11.288.288,0,0,0,.16.043H7.411A.272.272,0,0,0,7.568,6.8.149.149,0,0,0,7.638,6.689ZM7.544.448l5.132,9.409a.8.8,0,0,1-.013.842.855.855,0,0,1-.735.421H1.663A.855.855,0,0,1,.928,10.7a.8.8,0,0,1-.013-.842L6.047.448A.853.853,0,0,1,6.361.12a.844.844,0,0,1,.869,0A.853.853,0,0,1,7.544.448Z" transform="translate(-0.801)" fill="#fff"/>
</svg>
