<svg xmlns="http://www.w3.org/2000/svg" width="23.996" height="24" viewBox="0 0 23.996 24">
  <path id="call" d="M21.484,26.25a10.1,10.1,0,0,1-4.715-1.607,30.648,30.648,0,0,1-7.4-5.538,28.117,28.117,0,0,1-5.56-7.4C1.832,8.114,2.168,6.232,2.544,5.428A5.011,5.011,0,0,1,4.508,3.321a9.445,9.445,0,0,1,1.534-.814l.148-.065a1.433,1.433,0,0,1,1.176-.107,3.442,3.442,0,0,1,1.118.857A18.56,18.56,0,0,1,11.277,7.34a4.129,4.129,0,0,1,.548,1.7,2.686,2.686,0,0,1-.683,1.6c-.07.1-.14.187-.207.277-.408.536-.5.69-.438.967a10.16,10.16,0,0,0,2.475,3.67A9.747,9.747,0,0,0,16.6,17.964c.288.062.446-.031,1-.454.079-.06.161-.123.246-.186a2.7,2.7,0,0,1,1.621-.725h0a3.884,3.884,0,0,1,1.707.6,20.449,20.449,0,0,1,4.133,2.774,3.456,3.456,0,0,1,.86,1.115,1.444,1.444,0,0,1-.107,1.179c-.02.044-.042.093-.065.147a9.454,9.454,0,0,1-.819,1.531,5.006,5.006,0,0,1-2.11,1.96,3.611,3.611,0,0,1-1.584.347Z" transform="translate(-2.257 -2.25)" fill="#fff"/>
</svg>
