<svg xmlns="http://www.w3.org/2000/svg" width="24" height="24" viewBox="0 0 24 24">
  <g id="Group_3192" data-name="Group 3192" transform="translate(-8573 377)">
    <rect id="Rectangle_2429" data-name="Rectangle 2429" width="24" height="24" transform="translate(8573 -377)" fill="none"/>
    <path id="home" d="M5.292,14.921V12.483a1.134,1.134,0,0,1,1.132-1.128H8.717a1.134,1.134,0,0,1,1.139,1.128h0v2.445a.974.974,0,0,0,.956.969h1.529a2.747,2.747,0,0,0,2.76-2.733h0V6.23a1.939,1.939,0,0,0-.765-1.514L9.107.545a2.528,2.528,0,0,0-3.135,0L.765,4.724A1.924,1.924,0,0,0,0,6.238v6.927A2.747,2.747,0,0,0,2.76,15.9H4.29a.982.982,0,0,0,.986-.977h0" transform="translate(8577.155 -372.845)" fill="none" stroke="#641233" stroke-linecap="round" stroke-linejoin="round" stroke-width="1"/>
  </g>
</svg>
