<svg xmlns="http://www.w3.org/2000/svg" width="24" height="24" viewBox="0 0 24 24">
  <g id="Group_3191" data-name="Group 3191" transform="translate(-1766.709 -24.709)">
    <rect id="Rectangle_2057" data-name="Rectangle 2057" width="24" height="24" transform="translate(1766.709 24.709)" fill="none"/>
    <path id="_12086c0c7d4930b30b808a8b7c4323a0" data-name="12086c0c7d4930b30b808a8b7c4323a0" d="M135.038,111.794a3.837,3.837,0,1,1,3.836-3.837A3.837,3.837,0,0,1,135.038,111.794Zm0-6.567a2.731,2.731,0,1,0,2.73,2.731A2.731,2.731,0,0,0,135.038,105.227Zm6.125,14.785h-12.25l-.553-.553a6.678,6.678,0,0,1,13.356,0Zm-11.67-1.106h11.091a5.572,5.572,0,0,0-11.091,0Z" transform="translate(1643.322 -75.222)" fill="#a8b0bb"/>
  </g>
</svg>
