<svg xmlns="http://www.w3.org/2000/svg" width="26.513" height="23.059" viewBox="0 0 26.513 23.059">
  <path id="phone" d="M32.338,29.7a.728.728,0,0,0-.384-.558L29.233,27.78A2.109,2.109,0,0,1,28.082,25.9v-.523H22.466V25.9a2.149,2.149,0,0,1-1.151,1.884L18.593,29.14a.728.728,0,0,0-.384.558l-1.116,9.559a.677.677,0,0,0,.174.558.742.742,0,0,0,.523.244h15a.628.628,0,0,0,.523-.244.644.644,0,0,0,.174-.558L32.338,29.7ZM22.256,37.722a.73.73,0,0,1-.209.14.419.419,0,0,1-.279.07.689.689,0,0,1-.488-.209c-.035-.035-.07-.07-.07-.1-.035-.035-.035-.07-.07-.1s-.035-.07-.035-.14v-.14a.689.689,0,0,1,.209-.488.674.674,0,0,1,.977,0c.035.035.07.07.07.1.035.035.035.07.07.1s.035.07.035.14v.14a.689.689,0,0,1-.209.488Zm0-3.489a.689.689,0,0,1-.488.209.419.419,0,0,1-.279-.07c-.07-.035-.174-.07-.209-.14a.674.674,0,0,1,0-.977.674.674,0,0,1,.977,0,.674.674,0,0,1,0,.977Zm0-3.489a.691.691,0,1,1-.977-.977.605.605,0,0,1,.628-.174c.035,0,.07.035.14.035.035.035.07.035.1.07s.07.07.1.07a.674.674,0,0,1,0,.977Zm3.489,6.977a.689.689,0,0,1-.488.209.419.419,0,0,1-.279-.07c-.07-.035-.174-.07-.209-.14a.689.689,0,0,1-.209-.488v-.14c0-.035.035-.1.035-.14s.035-.07.07-.1.035-.07.07-.1.07-.07.1-.07.07-.035.1-.07c.035,0,.07-.035.14-.035a.793.793,0,0,1,.628.174.609.609,0,0,1,.244.488.689.689,0,0,1-.209.488Zm0-3.489a.689.689,0,0,1-.488.209h-.14c-.035,0-.1-.035-.14-.035s-.07-.035-.1-.07-.07-.035-.1-.07a.838.838,0,0,1-.209-.523.689.689,0,0,1,.209-.488c.035-.035.07-.07.1-.07s.07-.035.1-.07c.035,0,.07-.035.14-.035a.793.793,0,0,1,.628.174.674.674,0,0,1,0,.977Zm0-3.489a.691.691,0,1,1-.977-.977.674.674,0,0,1,.977,0,.674.674,0,0,1,0,.977Zm3.489,6.977a.691.691,0,1,1-.977-.977.605.605,0,0,1,.628-.174c.035,0,.07.035.14.035.035.035.07.035.1.07s.07.07.1.07a.674.674,0,0,1,0,.977Zm0-3.489a.689.689,0,0,1-.488.209.419.419,0,0,1-.279-.07c-.07-.035-.174-.07-.209-.14a.689.689,0,0,1-.209-.488v-.14c0-.035.035-.1.035-.14s.035-.07.07-.1.035-.07.07-.1a.674.674,0,0,1,.977,0c.035.035.07.07.07.1.035.035.035.07.07.1s.035.07.035.14v.14A.447.447,0,0,1,29.233,34.233Zm0-3.489a.7.7,0,0,1-1.186-.488v-.14c0-.035.035-.07.035-.14,0-.035.035-.07.07-.1s.035-.07.07-.1a.674.674,0,0,1,.977,0c.035.035.07.07.07.1.035.035.035.07.07.1s.035.07.035.14v.14A.447.447,0,0,1,29.233,30.745Zm-1.186-6.768H22.466V21.884h5.582Zm10.466-.7a.7.7,0,0,1-.7.7H33.629a.7.7,0,0,1-.7-.7V22.233a1.727,1.727,0,0,0-1.744-1.744H19.326a1.727,1.727,0,0,0-1.744,1.744v1.047a.7.7,0,0,1-.7.7H12.7a.7.7,0,0,1-.7-.7A6.3,6.3,0,0,1,18.279,17H32.233A6.3,6.3,0,0,1,38.513,23.279Z" transform="translate(-12 -17)" fill="#fff"/>
</svg>
